<svg xmlns="http://www.w3.org/2000/svg" width="195.553" height="132.344" viewBox="0 0 195.553 132.344">
  <g id="Group_25" data-name="Group 25" transform="translate(-152.25 -201.345)">
    <g id="Group_1" data-name="Group 1">
      <path id="Path_1" data-name="Path 1" d="M214.466,247.233h9.644v5.693h.158a15.462,15.462,0,0,1,6.048-5.3,18.2,18.2,0,0,1,8.023-1.739A21.583,21.583,0,0,1,247,247.55a24.01,24.01,0,0,1,11.779,12.806,25.459,25.459,0,0,1,1.542,8.855,23.77,23.77,0,0,1-6.167,16.284,20.172,20.172,0,0,1-15.811,6.957,18.4,18.4,0,0,1-7.391-1.423,14.894,14.894,0,0,1-5.81-4.665l-.158-.078v19.368H214.466Zm13.557,12.727a12.8,12.8,0,0,0-3.675,9.251,14.309,14.309,0,0,0,.988,5.336,11.493,11.493,0,0,0,3.122,4.386,13.714,13.714,0,0,0,2.925,1.938,12.732,12.732,0,0,0,3.32,1.145,5.239,5.239,0,0,0,1.067.2c.343.028.7.04,1.068.04a12.368,12.368,0,0,0,9.288-3.806,13.551,13.551,0,0,0,.079-18.475,11.727,11.727,0,0,0-8.972-3.885A12.561,12.561,0,0,0,228.023,259.96Z" fill="#2d6cb4"/>
    </g>
    <g id="Group_2" data-name="Group 2">
      <path id="Path_2" data-name="Path 2" d="M266.64,247.233h9.644v5.693h.158a15.463,15.463,0,0,1,6.048-5.3,18.2,18.2,0,0,1,8.023-1.739,21.583,21.583,0,0,1,8.657,1.66,24.01,24.01,0,0,1,11.779,12.806,25.459,25.459,0,0,1,1.542,8.855,23.77,23.77,0,0,1-6.167,16.284,20.173,20.173,0,0,1-15.811,6.957,18.4,18.4,0,0,1-7.391-1.423,14.893,14.893,0,0,1-5.81-4.665l-.158-.078v19.368H266.64ZM280.2,259.96a12.8,12.8,0,0,0-3.675,9.251,14.309,14.309,0,0,0,.988,5.336,11.482,11.482,0,0,0,3.122,4.386,13.714,13.714,0,0,0,2.925,1.938,12.731,12.731,0,0,0,3.32,1.145,5.239,5.239,0,0,0,1.067.2c.343.028.7.04,1.068.04a12.368,12.368,0,0,0,9.288-3.806,13.551,13.551,0,0,0,.079-18.475,11.727,11.727,0,0,0-8.972-3.885A12.561,12.561,0,0,0,280.2,259.96Z" fill="#2d6cb4"/>
    </g>
    <g id="Group_3" data-name="Group 3">
      <path id="Path_3" data-name="Path 3" d="M336.284,259.25a3.277,3.277,0,0,0-1.384-2.293,4.557,4.557,0,0,0-2.648-.79,4.672,4.672,0,0,0-2.925.909,3.222,3.222,0,0,0-1.186,2.727v.079a2.508,2.508,0,0,0,1.107,2.333,10.456,10.456,0,0,0,2.529,1.3q.633.159,1.226.316t1.067.317a39.925,39.925,0,0,1,9.487,4.15q4.188,2.571,4.189,9.131a14.72,14.72,0,0,1-1.107,5.732,14.247,14.247,0,0,1-3.319,4.781,16.609,16.609,0,0,1-4.072,2.689,20.017,20.017,0,0,1-4.783,1.581l-1.265.157a10.135,10.135,0,0,1-1.264.08,15.715,15.715,0,0,1-11.187-4.19,15.047,15.047,0,0,1-4.7-10.91H326.8a6.581,6.581,0,0,0,1.818,3.557,5.021,5.021,0,0,0,3.716,1.424,5.722,5.722,0,0,0,3.4-1.067,3.59,3.59,0,0,0,1.5-3.123,3.551,3.551,0,0,0-1.463-3.048,12.476,12.476,0,0,0-3.28-1.7,11.473,11.473,0,0,0-1.383-.516c-.449-.131-.883-.277-1.3-.435q-.553-.157-1.027-.316t-.949-.317q-.872-.318-1.66-.635t-1.581-.713a13.507,13.507,0,0,1-1.305-.752,11.5,11.5,0,0,1-1.383-1.071,12.124,12.124,0,0,1-3.2-4.121,11.9,11.9,0,0,1-1.067-5.072,12.117,12.117,0,0,1,4.506-9.826,15.683,15.683,0,0,1,10.277-3.726,14.313,14.313,0,0,1,9.8,3.891,12.239,12.239,0,0,1,4.348,9.469Z" fill="#2d6cb4"/>
    </g>
    <g id="Group_4" data-name="Group 4">
      <path id="Path_4" data-name="Path 4" d="M197,247.233v6.246a17.5,17.5,0,0,0-6.4-5.653,18,18,0,0,0-8.3-1.936,21.283,21.283,0,0,0-8.209,1.591l8.069,8.786a15.349,15.349,0,0,1,1.88-.1,11.7,11.7,0,0,1,9.13,3.676,12.965,12.965,0,0,1,3.518,9.209v.08a13.226,13.226,0,0,1-3.557,9.406,11.857,11.857,0,0,1-9.25,3.716,12.45,12.45,0,0,1-9.13-3.6,12.044,12.044,0,0,1-3.835-9.051,15.938,15.938,0,0,1,.294-3.056l-8.138-8.861a19.551,19.551,0,0,0-1.365,3.062,27.664,27.664,0,0,0,.118,17.155,23.282,23.282,0,0,0,4.032,7.273,20.146,20.146,0,0,0,6.957,5.336,21.265,21.265,0,0,0,9.17,1.937,13.936,13.936,0,0,0,1.463-.08q.75-.078,1.462-.157a21.618,21.618,0,0,0,6.719-2.451,15.416,15.416,0,0,0,5.217-4.664H197v5.929h9.644v-43.8Z" fill="#2d6cb4"/>
    </g>
    <g id="Group_5" data-name="Group 5">
      <path id="Path_5" data-name="Path 5" d="M185.866,260.952a.01.01,0,0,0-.011-.01c-.042-.032-.106-.053-.159-.1a7,7,0,0,0-4.529-1.718H181.1a5.937,5.937,0,0,0-.753.042c-.22.023-.428.076-.641.118a4.46,4.46,0,0,1,.641-.118h-.085c-6.4-.329-12.037-6.561-13.079-13.673v-.1a1.876,1.876,0,0,0-.022-.35v-.127a6.446,6.446,0,0,0-1.739-3.957,7.067,7.067,0,1,0-9.781,9.59,7.345,7.345,0,0,0,2.6,1.315,7.162,7.162,0,0,0,1.92.255q.335,0,.669-.032c6.62,1.875,12.143,7.633,13.487,13.222-.005.1-.016.194-.016.292a5.228,5.228,0,0,0,.181,1.358,4.93,4.93,0,0,0,.233.795.2.2,0,0,1,.011.075,7.067,7.067,0,1,0,11.138-6.885Z" fill="#e44200"/>
    </g>
    <g id="Group_6" data-name="Group 6">
      <circle id="Ellipse_1" data-name="Ellipse 1" cx="6.324" cy="6.324" r="6.324" transform="translate(157.285 219.418)" fill="#2d6cb4"/>
    </g>
    <g id="Group_7" data-name="Group 7">
      <path id="Path_6" data-name="Path 6" d="M195.13,238.026a12.431,12.431,0,0,1-9.182-3.744,13,13,0,0,1,18.39-18.391,12.433,12.433,0,0,1,3.745,9.183v9.461a3.271,3.271,0,0,1-.962,2.454,3.408,3.408,0,0,1-2.479.936,3.213,3.213,0,0,1-3.39-3.39v-9.461a5.819,5.819,0,0,0-1.8-4.3A5.94,5.94,0,0,0,195.13,219a6.047,6.047,0,0,0-6.071,6.072,5.932,5.932,0,0,0,1.771,4.325,5.809,5.809,0,0,0,4.3,1.8,3.4,3.4,0,0,1,2.479.936,3.27,3.27,0,0,1,.962,2.453,3.3,3.3,0,0,1-3.441,3.441Z" fill="#e44200"/>
      <path id="Path_7" data-name="Path 7" d="M217.644,223.05v11.485a3.274,3.274,0,0,1-.961,2.454,3.408,3.408,0,0,1-2.479.936,3.213,3.213,0,0,1-3.39-3.39V223.05a10.476,10.476,0,0,1,3.162-7.741,10.6,10.6,0,0,1,7.766-3.137,3.288,3.288,0,0,1,3.39,3.39q0,3.138-3.491,3.44a4.59,4.59,0,0,0-2.858,1.24A3.713,3.713,0,0,0,217.644,223.05Z" fill="#e44200"/>
      <path id="Path_8" data-name="Path 8" d="M240.765,238.026a12.432,12.432,0,0,1-9.183-3.744,13.005,13.005,0,0,1,18.391-18.391,12.432,12.432,0,0,1,3.744,9.183v9.461a3.271,3.271,0,0,1-.962,2.454,3.409,3.409,0,0,1-2.479.936,3.213,3.213,0,0,1-3.389-3.39v-9.461a5.816,5.816,0,0,0-1.8-4.3A5.94,5.94,0,0,0,240.765,219a6.047,6.047,0,0,0-6.072,6.072,5.932,5.932,0,0,0,1.771,4.325,5.813,5.813,0,0,0,4.3,1.8,3.4,3.4,0,0,1,2.479.936,3.273,3.273,0,0,1,.961,2.453,3.294,3.294,0,0,1-3.44,3.441Z" fill="#e44200"/>
      <path id="Path_9" data-name="Path 9" d="M269.351,212.071a12.987,12.987,0,1,1-12.9,12.952V205.19a3.287,3.287,0,0,1,3.391-3.389,3.4,3.4,0,0,1,2.478.936,3.27,3.27,0,0,1,.961,2.453v19.833a6.047,6.047,0,0,0,6.073,6.071,5.934,5.934,0,0,0,4.324-1.77,5.815,5.815,0,0,0,1.8-4.3,6.134,6.134,0,0,0-6.121-6.122,3.213,3.213,0,0,1-3.391-3.389,3.4,3.4,0,0,1,.936-2.479A3.272,3.272,0,0,1,269.351,212.071Z" fill="#e44200"/>
      <path id="Path_10" data-name="Path 10" d="M291.383,202.585a4.153,4.153,0,1,1-2.96-1.24A4.045,4.045,0,0,1,291.383,202.585Zm.48,12.977q0-3.389-3.44-3.39a3.213,3.213,0,0,0-3.39,3.39v18.973a3.213,3.213,0,0,0,3.39,3.39,3.4,3.4,0,0,0,2.478-.936,3.271,3.271,0,0,0,.962-2.454Z" fill="#e44200"/>
      <path id="Path_11" data-name="Path 11" d="M307.547,238.026a12.43,12.43,0,0,1-9.183-3.744,13.005,13.005,0,0,1,18.391-18.391,12.435,12.435,0,0,1,3.743,9.183v9.461a3.27,3.27,0,0,1-.961,2.454,3.408,3.408,0,0,1-2.478.936,3.213,3.213,0,0,1-3.391-3.39v-9.461a5.819,5.819,0,0,0-1.8-4.3A5.941,5.941,0,0,0,307.547,219a6.045,6.045,0,0,0-6.071,6.072,5.931,5.931,0,0,0,1.77,4.325,5.811,5.811,0,0,0,4.3,1.8,3.4,3.4,0,0,1,2.478.936,3.27,3.27,0,0,1,.962,2.453,3.3,3.3,0,0,1-3.44,3.441Z" fill="#e44200"/>
    </g>
    <g id="Group_22" data-name="Group 22">
      <g id="Group_11" data-name="Group 11">
        <g id="Group_8" data-name="Group 8">
          <path id="Path_12" data-name="Path 12" d="M229.358,311.561v6.875a1.291,1.291,0,0,1-1.455,1.382,1.221,1.221,0,0,1-1.358-1.382v-6.875h-5.487v6.875a1.226,1.226,0,0,1-1.386,1.387,1.386,1.386,0,0,1-1.368-1.387v-6.875h-5.526v6.875a1.306,1.306,0,0,1-.42.985,1.363,1.363,0,0,1-1.933,0,1.3,1.3,0,0,1-.42-.985v-6.875h-5.527v13.788a2.608,2.608,0,0,1-.8,1.914,2.744,2.744,0,0,1-4.687-1.914V311.561h-5.526v13.788a8.271,8.271,0,1,0,16.541,0v-.138a7.737,7.737,0,0,0,1.386.138,6.856,6.856,0,0,0,4.14-1.387,6.857,6.857,0,0,0,4.141,1.387,6.717,6.717,0,0,0,4.12-1.387,6.914,6.914,0,0,0,4.08,1.382v.005c.01,0,.019,0,.029,0s.02,0,.031,0v-.006a6.89,6.89,0,0,0,4.951-1.995,6.681,6.681,0,0,0,2-4.912v-6.875Z" fill="#e44200"/>
        </g>
        <g id="Group_9" data-name="Group 9">
          <path id="Path_13" data-name="Path 13" d="M234.885,330.836a2.736,2.736,0,1,1-.8-1.972A2.66,2.66,0,0,1,234.885,330.836Z" fill="#e44200"/>
        </g>
        <g id="Group_10" data-name="Group 10">
          <path id="Path_14" data-name="Path 14" d="M248.652,303.282a5.467,5.467,0,0,1-5.526,5.526H232.112a5.467,5.467,0,0,1,5.526-5.526Zm-5.526,22.067h-5.488V309.492h5.488Z" fill="#e44200"/>
        </g>
      </g>
      <g id="Group_21" data-name="Group 21">
        <g id="Group_12" data-name="Group 12">
          <path id="Path_15" data-name="Path 15" d="M280.346,311.561v6.875a1.223,1.223,0,0,1-1.375,1.385,1.314,1.314,0,0,1-.958-.4,1.337,1.337,0,0,1-.4-.985v-6.875h-5.526v6.875a1.22,1.22,0,0,1-1.353,1.382,1.313,1.313,0,0,1-.942-.4,1.336,1.336,0,0,1-.4-.985v-6.875h-5.527v6.875a1.218,1.218,0,0,1-1.347,1.381,1.288,1.288,0,0,1-1.445-1.381V303.282h-5.527v15.154a6.681,6.681,0,0,0,2,4.912,6.891,6.891,0,0,0,4.93,1.994v.007c.015,0,.028,0,.043,0s.024,0,.037,0v-.006a6.631,6.631,0,0,0,4.061-1.381,6.852,6.852,0,0,0,4.081,1.382v.005l.03,0c.01,0,.019,0,.029,0v-.005a6.631,6.631,0,0,0,4.081-1.382,6.853,6.853,0,0,0,4.12,1.385v0h.021v0a6.831,6.831,0,0,0,6.893-6.911v-6.875Z" fill="#e44200"/>
        </g>
        <g id="Group_18" data-name="Group 18">
          <g id="Group_13" data-name="Group 13">
            <path id="Path_16" data-name="Path 16" d="M262.21,330.935a2.734,2.734,0,1,1-.8-1.972A2.659,2.659,0,0,1,262.21,330.935Z" fill="#e44200"/>
          </g>
          <g id="Group_14" data-name="Group 14">
            <path id="Path_17" data-name="Path 17" d="M267.7,330.935a2.735,2.735,0,1,1-.8-1.972A2.66,2.66,0,0,1,267.7,330.935Z" fill="#e44200"/>
          </g>
          <g id="Group_15" data-name="Group 15">
            <path id="Path_18" data-name="Path 18" d="M273.956,330.836a2.734,2.734,0,1,1-.8-1.972A2.659,2.659,0,0,1,273.956,330.836Z" fill="#e44200"/>
          </g>
          <g id="Group_16" data-name="Group 16">
            <path id="Path_19" data-name="Path 19" d="M280.372,330.836a2.734,2.734,0,1,1-.8-1.972A2.659,2.659,0,0,1,280.372,330.836Z" fill="#e44200"/>
          </g>
          <g id="Group_17" data-name="Group 17">
            <path id="Path_20" data-name="Path 20" d="M285.86,330.836a2.735,2.735,0,1,1-.8-1.972A2.66,2.66,0,0,1,285.86,330.836Z" fill="#e44200"/>
          </g>
        </g>
        <g id="Group_19" data-name="Group 19">
          <path id="Path_21" data-name="Path 21" d="M294.1,326.676a6.837,6.837,0,0,1-6.914,6.914v-5.527a1.226,1.226,0,0,0,1.387-1.387V311.561H294.1Z" fill="#e44200"/>
        </g>
        <g id="Group_20" data-name="Group 20">
          <path id="Path_22" data-name="Path 22" d="M307.862,303.282a5.467,5.467,0,0,1-5.526,5.526H291.322a5.467,5.467,0,0,1,5.526-5.526Zm-5.526,22.067h-5.488V309.492h5.488Z" fill="#e44200"/>
        </g>
      </g>
    </g>
    <g id="Group_23" data-name="Group 23">
      <rect id="Rectangle_1" data-name="Rectangle 1" width="28.854" height="2.787" transform="translate(152.937 314.657)" fill="#2d6cb4"/>
    </g>
    <g id="Group_24" data-name="Group 24">
      <rect id="Rectangle_2" data-name="Rectangle 2" width="28.854" height="2.787" transform="translate(318.949 314.657)" fill="#2d6cb4"/>
    </g>
  </g>
</svg>
