<svg xmlns="http://www.w3.org/2000/svg" xmlns:xlink="http://www.w3.org/1999/xlink" width="375" height="812" viewBox="0 0 375 812">
  <defs>
    <clipPath id="clip-path">
      <rect id="Rectangle_1612" data-name="Rectangle 1612" width="375" height="812" fill="#fff"/>
    </clipPath>
  </defs>
  <g id="Mask_Group_12" data-name="Mask Group 12" clip-path="url(#clip-path)">
    <circle id="Ellipse_3" data-name="Ellipse 3" cx="126" cy="126" r="126" transform="translate(211.811 -103.335)" fill="#2d6cb4" opacity="0.08"/>
    <g id="Group_30" data-name="Group 30" transform="translate(29 123.275)">
      <g id="Group_26" data-name="Group 26" transform="matrix(0.998, -0.07, 0.07, 0.998, -40.706, 617.377)">
        <path id="Path_5" data-name="Path 5" d="M218.074,152.495a.066.066,0,0,0-.071-.065c-.272-.207-.688-.344-1.031-.623a45.435,45.435,0,0,0-29.381-11.145h-.415a38.524,38.524,0,0,0-4.885.273c-1.427.149-2.777.493-4.158.765a28.919,28.919,0,0,1,4.158-.765h-.551c-41.531-2.134-78.087-42.563-84.846-88.7v-.623a12.171,12.171,0,0,0-.143-2.271v-.824a41.819,41.819,0,0,0-11.281-25.67A45.822,45.822,0,0,0,0,45.9,45.714,45.714,0,0,0,22.018,85.06a47.653,47.653,0,0,0,16.86,8.531,46.46,46.46,0,0,0,12.455,1.654q2.17,0,4.34-.208c42.945,12.164,78.774,49.517,87.493,85.774-.032.636-.1,1.259-.1,1.894a33.913,33.913,0,0,0,1.174,8.81,31.98,31.98,0,0,0,1.512,5.157,1.312,1.312,0,0,1,.071.487,45.843,45.843,0,1,0,72.255-44.665Z" transform="translate(0 0)" fill="#e44200"/>
      </g>
      <g id="Group_27" data-name="Group 27" transform="matrix(0.998, -0.07, 0.07, 0.998, -72.785, 501.622)">
        <path id="Path_5-2" data-name="Path 5" d="M218.074,152.495a.066.066,0,0,0-.071-.065c-.272-.207-.688-.344-1.031-.623a45.435,45.435,0,0,0-29.381-11.145h-.415a38.524,38.524,0,0,0-4.885.273c-1.427.149-2.777.493-4.158.765a28.919,28.919,0,0,1,4.158-.765h-.551c-41.531-2.134-78.087-42.563-84.846-88.7v-.623a12.171,12.171,0,0,0-.143-2.271v-.824a41.819,41.819,0,0,0-11.281-25.67A45.822,45.822,0,0,0,0,45.9,45.714,45.714,0,0,0,22.018,85.06a47.653,47.653,0,0,0,16.86,8.531,46.46,46.46,0,0,0,12.455,1.654q2.17,0,4.34-.208c42.945,12.164,78.774,49.517,87.493,85.774-.032.636-.1,1.259-.1,1.894a33.913,33.913,0,0,0,1.174,8.81,31.98,31.98,0,0,0,1.512,5.157,1.312,1.312,0,0,1,.071.487,45.843,45.843,0,1,0,72.255-44.665Z" transform="translate(0 0)" fill="#2d6cb4"/>
      </g>
      <circle id="Ellipse_2" data-name="Ellipse 2" cx="38.79" cy="38.79" r="38.79" transform="matrix(0.998, -0.07, 0.07, 0.998, 58.398, 527.518)" fill="#e44200"/>
    </g>
  </g>
</svg>
