<svg id="Group_224" data-name="Group 224" xmlns="http://www.w3.org/2000/svg" xmlns:xlink="http://www.w3.org/1999/xlink" width="375" height="148" viewBox="0 0 375 148">
  <defs>
    <clipPath id="clip-path">
      <path id="Rectangle_4" data-name="Rectangle 4" d="M0,0H375a0,0,0,0,1,0,0V129a18,18,0,0,1-18,18H18A18,18,0,0,1,0,129V0A0,0,0,0,1,0,0Z" fill="#fff"/>
    </clipPath>
  </defs>
  <path id="Rectangle_3" data-name="Rectangle 3" d="M0,0H375a0,0,0,0,1,0,0V130a18,18,0,0,1-18,18H18A18,18,0,0,1,0,130V0A0,0,0,0,1,0,0Z" fill="#2d6cb4" opacity="0.08"/>
  <g id="Mask_Group_1" data-name="Mask Group 1" clip-path="url(#clip-path)">
    <g id="Group_31" data-name="Group 31" transform="translate(56.437 -434.506)" opacity="0.08">
      <g id="Group_26" data-name="Group 26" transform="matrix(0.998, -0.07, 0.07, 0.998, -58.72, 543.097)">
        <path id="Path_5" data-name="Path 5" d="M95.615,66.861a.029.029,0,0,0-.031-.028c-.119-.091-.3-.151-.452-.273a19.921,19.921,0,0,0-12.882-4.887h-.182a16.892,16.892,0,0,0-2.142.12c-.626.065-1.217.216-1.823.336a12.678,12.678,0,0,1,1.823-.336h-.242c-18.209-.936-34.237-18.662-37.2-38.891v-.273a5.336,5.336,0,0,0-.063-1v-.361a18.335,18.335,0,0,0-4.946-11.255A20.091,20.091,0,0,0,0,20.126,20.043,20.043,0,0,0,9.654,37.295a20.893,20.893,0,0,0,7.392,3.74,20.37,20.37,0,0,0,5.461.725q.951,0,1.9-.091C43.239,47,58.949,63.38,62.771,79.277c-.014.279-.046.552-.046.831a14.869,14.869,0,0,0,.515,3.863,14.021,14.021,0,0,0,.663,2.261.575.575,0,0,1,.031.213,20.1,20.1,0,1,0,31.68-19.583Z" transform="translate(0 0)" fill="#2d6cb4"/>
      </g>
      <g id="Group_27" data-name="Group 27" transform="matrix(0.998, -0.07, 0.07, 0.998, -72.785, 492.344)">
        <path id="Path_5-2" data-name="Path 5" d="M95.615,66.861a.029.029,0,0,0-.031-.028c-.119-.091-.3-.151-.452-.273a19.921,19.921,0,0,0-12.882-4.887h-.182a16.892,16.892,0,0,0-2.142.12c-.626.065-1.217.216-1.823.336a12.678,12.678,0,0,1,1.823-.336h-.242c-18.209-.936-34.237-18.662-37.2-38.891v-.273a5.336,5.336,0,0,0-.063-1v-.361a18.335,18.335,0,0,0-4.946-11.255A20.091,20.091,0,0,0,0,20.126,20.043,20.043,0,0,0,9.654,37.295a20.893,20.893,0,0,0,7.392,3.74,20.37,20.37,0,0,0,5.461.725q.951,0,1.9-.091C43.239,47,58.949,63.38,62.771,79.277c-.014.279-.046.552-.046.831a14.869,14.869,0,0,0,.515,3.863,14.021,14.021,0,0,0,.663,2.261.575.575,0,0,1,.031.213,20.1,20.1,0,1,0,31.68-19.583Z" transform="translate(0 0)" fill="#2d6cb4"/>
      </g>
      <circle id="Ellipse_2" data-name="Ellipse 2" cx="17.007" cy="17.007" r="17.007" transform="matrix(0.998, -0.07, 0.07, 0.998, -15.268, 503.698)" fill="#2d6cb4"/>
    </g>
  </g>
</svg>
