<svg id="Group_114" data-name="Group 114" xmlns="http://www.w3.org/2000/svg" width="34.135" height="39.186" viewBox="0 0 34.135 39.186">
  <path id="Path_93" data-name="Path 93" d="M16.741,139.84l-9.165-.117L0,145.041l16.741,14.324Z" transform="translate(0 -129.029)" fill="#ffb54c"/>
  <path id="Path_94" data-name="Path 94" d="M228.739,160.8l16.628-14.227-7.224-5.07-9.4-.12Z" transform="translate(-211.232 -130.561)" fill="#f67e00"/>
  <path id="Path_95" data-name="Path 95" d="M91,0V21.966l.842,6.046,9.261.078,1.454-14.39L101.1,0Z" transform="translate(-84.035)" fill="#e7f2ff"/>
  <path id="Path_96" data-name="Path 96" d="M223,0V28.09l8.955.075,1.148-6.505V0Z" transform="translate(-205.933)" fill="#d1d5f7"/>
  <path id="Path_97" data-name="Path 97" d="M0,209.2v23.175H17.067l1.071-5.587-1.071-5.664Z" transform="translate(0 -193.192)" fill="#ffdd46"/>
  <path id="Path_98" data-name="Path 98" d="M240.067,209.2,223,221.127v11.251h17.067Z" transform="translate(-205.933 -193.192)" fill="#ffb54c"/>
  <path id="Path_99" data-name="Path 99" d="M179,223v2.3h3.368l.765-1.225L182.368,223Z" transform="translate(-165.3 -205.933)" fill="#2ee66b"/>
  <path id="Path_100" data-name="Path 100" d="M223,223h3.368v2.3H223Z" transform="translate(-205.933 -205.933)" fill="#24b383"/>
  <path id="Path_101" data-name="Path 101" d="M40,442h2.3v2.3H40Zm4.592,0h5.664v2.3H44.592Z" transform="translate(-36.939 -408.171)" fill="#3ba9ff"/>
  <path id="Path_102" data-name="Path 102" d="M171.267,67.894l-1.623,1.623,2.46,2.46-2.46,2.46,1.623,1.623,2.46-2.46.689-1.719-.689-1.528Z" transform="translate(-156.66 -62.698)" fill="#ff4d4d"/>
  <path id="Path_103" data-name="Path 103" d="M227.084,69.517l-1.624-1.623L223,70.354V73.6l2.46,2.46,1.624-1.623-2.46-2.46Z" transform="translate(-205.933 -62.698)" fill="#cc295f"/>
</svg>
