<svg xmlns="http://www.w3.org/2000/svg" width="18.757" height="18.13" viewBox="0 0 18.757 18.13">
  <g id="Group_163" data-name="Group 163" transform="translate(1)">
    <path id="Path_8010" data-name="Path 8010" d="M28.058,17.065a12.645,12.645,0,0,0-.308-2.789.841.841,0,0,0-.657-.65l-1.286-.275a.833.833,0,0,1-.6-.484L23.76,9.682a.854.854,0,0,1,.6-1.191l1.987-.438a2.111,2.111,0,0,1,2.286.97,15.189,15.189,0,0,1,2.228,8.042,15.189,15.189,0,0,1-2.228,8.042,2.111,2.111,0,0,1-2.286.97l-1.987-.438a.854.854,0,0,1-.6-1.191l1.447-3.186a.833.833,0,0,1,.6-.484l1.286-.275a.84.84,0,0,0,.657-.65A12.647,12.647,0,0,0,28.058,17.065Z" transform="translate(-13.1 -8.001)" fill="#fff" fill-rule="evenodd"/>
    <path id="Path_8011" data-name="Path 8011" d="M24.209,12.086h-9.6a1.5,1.5,0,0,0-.712.18l6.431,4.279a.453.453,0,0,0,.514,0l4.3-2.86a1.43,1.43,0,0,1-.466-.574Zm-10.78.57,5.416,3.6-5.477,5.135a1.5,1.5,0,0,1-.269-.857V13.595A1.5,1.5,0,0,1,13.429,12.655Zm.358,9.145a1.5,1.5,0,0,0,.822.244h9.6l.465-1.024a1.417,1.417,0,0,1,1.008-.813l-3.858-3.617-.661.44a1.03,1.03,0,0,1-1.158,0l-.661-.44ZM25.8,13.948l-3.474,2.311,4.054,3.8.594-.127a.257.257,0,0,0,.209-.206,12.211,12.211,0,0,0,0-5.321.257.257,0,0,0-.209-.206Z" transform="translate(-14.1 -8.001)" fill="#fff" fill-rule="evenodd"/>
  </g>
</svg>
