<svg xmlns="http://www.w3.org/2000/svg" width="73.155" height="63.563" viewBox="0 0 73.155 63.563">
  <g id="Group_66" data-name="Group 66" transform="translate(-236.737 -261.718)">
    <g id="Group_60" data-name="Group 60" transform="translate(222.399 261.718)">
      <path id="Path_122" data-name="Path 122" d="M87.49,361.33v14.017a4.106,4.106,0,0,1-4.106,4.105H38.222a4.105,4.105,0,0,1-4.105-4.105v-4.106Z" transform="translate(0 -317.869)" fill="#ece6f2"/>
      <path id="Path_123" data-name="Path 123" d="M424.154,361.859v13.488a4.106,4.106,0,0,1-4.106,4.105H422.9A4.106,4.106,0,0,0,427,375.347V361.33Z" transform="translate(-339.511 -317.869)" fill="#cfcfe6"/>
      <path id="Path_124" data-name="Path 124" d="M87.492,50.556V38.239a4.105,4.105,0,0,0-4.106-4.105H38.222a4.105,4.105,0,0,0-4.105,4.105V50.556L60.806,53.4Z" transform="translate(0 -30.028)" fill="#fd5263"/>
      <path id="Path_125" data-name="Path 125" d="M424.162,38.239V50.86l2.85-.3V38.239a4.105,4.105,0,0,0-4.105-4.105h-2.85a4.105,4.105,0,0,1,4.106,4.105Z" transform="translate(-339.518 -30.028)" fill="#fd3339"/>
      <path id="Path_126" data-name="Path 126" d="M79.409,198.982l7.712-3.682a4.1,4.1,0,0,0,.37-1.7V170.667H34.117v32.844a4.105,4.105,0,0,0,4.105,4.105H73.474a4.105,4.105,0,0,0,1.7-.37Z" transform="translate(0 -150.139)" fill="#fff5f5"/>
      <path id="Path_127" data-name="Path 127" d="M454.18,170.667v27.482l1.646-1.646a4.105,4.105,0,0,0,1.2-2.9V170.667Z" transform="translate(-369.537 -150.139)" fill="#ece6f2"/>
      <path id="Path_128" data-name="Path 128" d="M34.117,68.752H87.493v1.859H34.117ZM78.254,62.4H67.99a.929.929,0,0,1,0-1.859H78.254a.929.929,0,1,1,0,1.859Z" transform="translate(0 -53.259)" fill="#fd3339"/>
      <path id="Path_129" data-name="Path 129" d="M338.975,3.079a3.079,3.079,0,1,0-6.158,0V7.185a3.079,3.079,0,1,0,6.158,0Z" transform="translate(-262.772 0)" fill="#ffda44"/>
      <path id="Path_130" data-name="Path 130" d="M347.995,0a3.064,3.064,0,0,0-1.425.35,3.078,3.078,0,0,1,1.654,2.729V7.185a3.078,3.078,0,0,1-1.654,2.729,3.079,3.079,0,0,0,4.5-2.729V3.079A3.079,3.079,0,0,0,347.995,0Z" transform="translate(-274.871 0)" fill="#ffb655"/>
      <path id="Path_131" data-name="Path 131" d="M376.669,386.581l9.911-9.912a4.1,4.1,0,0,0,.833-1.2h-7.841a4.106,4.106,0,0,0-4.106,4.106v7.841A4.105,4.105,0,0,0,376.669,386.581Z" transform="translate(-300.292 -330.306)" fill="#fff"/>
      <path id="Path_132" data-name="Path 132" d="M114.418,62.4H104.154a.929.929,0,1,1,0-1.859h10.264a.929.929,0,0,1,0,1.859Z" transform="translate(-60.796 -53.259)" fill="#fd3339"/>
      <path id="Path_133" data-name="Path 133" d="M134.192,3.079a3.079,3.079,0,0,0-6.158,0V7.185a3.079,3.079,0,0,0,6.158,0Z" transform="translate(-82.621 0)" fill="#ffda44"/>
      <path id="Path_134" data-name="Path 134" d="M143.212,0a3.064,3.064,0,0,0-1.425.35,3.078,3.078,0,0,1,1.654,2.729V7.185a3.078,3.078,0,0,1-1.654,2.729,3.079,3.079,0,0,0,4.5-2.729V3.079A3.079,3.079,0,0,0,143.212,0Z" transform="translate(-94.719 0)" fill="#ffb655"/>
      <path id="Path_135" data-name="Path 135" d="M372.162,219.491H376.4a.962.962,0,0,0,.962-.962V214.3a.962.962,0,0,0-.962-.962h-4.234a.962.962,0,0,0-.962.962v4.234A.962.962,0,0,0,372.162,219.491Zm0,10.264H376.4a.962.962,0,0,0,.962-.962v-4.234a.962.962,0,0,0-.962-.962h-4.234a.962.962,0,0,0-.962.962v4.234A.962.962,0,0,0,372.162,229.755Z" transform="translate(-296.539 -187.673)" fill="#fd5263"/>
      <g id="Group_59" data-name="Group 59" transform="translate(40.791 25.66)">
        <path id="Path_136" data-name="Path 136" d="M113.143,219.491h4.234a.962.962,0,0,0,.962-.962V214.3a.962.962,0,0,0-.962-.962h-4.234a.962.962,0,0,0-.962.962v4.234A.962.962,0,0,0,113.143,219.491Zm0,10.264h4.234a.962.962,0,0,0,.962-.962v-4.234a.962.962,0,0,0-.962-.962h-4.234a.962.962,0,0,0-.962.962v4.234A.962.962,0,0,0,113.143,229.755Zm-11.29-10.264h4.234a.962.962,0,0,0,.962-.962V214.3a.962.962,0,0,0-.962-.962h-4.234a.962.962,0,0,0-.962.962v4.234A.962.962,0,0,0,101.852,219.491Zm0,10.264h4.234a.962.962,0,0,0,.962-.962v-4.234a.962.962,0,0,0-.962-.962h-4.234a.962.962,0,0,0-.962.962v4.234A.962.962,0,0,0,101.852,229.755Zm-11.29,0H94.8a.962.962,0,0,0,.962-.962v-4.234a.962.962,0,0,0-.962-.962H90.562a.962.962,0,0,0-.962.962v4.234A.962.962,0,0,0,90.562,229.755Zm22.581,10.264h4.234a.962.962,0,0,0,.962-.962v-4.234a.962.962,0,0,0-.962-.962h-4.234a.962.962,0,0,0-.962.962v4.234A.962.962,0,0,0,113.143,240.019Zm-11.29,0h4.234a.962.962,0,0,0,.962-.962v-4.234a.962.962,0,0,0-.962-.962h-4.234a.962.962,0,0,0-.962.962v4.234A.962.962,0,0,0,101.852,240.019Zm-11.29,0H94.8a.962.962,0,0,0,.962-.962v-4.234a.962.962,0,0,0-.962-.962H90.562a.962.962,0,0,0-.962.962v4.234A.962.962,0,0,0,90.562,240.019Z" transform="translate(-89.6 -213.333)" fill="#fd5263"/>
      </g>
      <path id="Path_137" data-name="Path 137" d="M393.315,213.333h-2.85a.991.991,0,0,1,.991.991V218.5a.991.991,0,0,1-.991.991h2.85a.991.991,0,0,0,.991-.991v-4.176A.991.991,0,0,0,393.315,213.333Zm0,10.264h-2.85a.991.991,0,0,1,.991.991v4.176a.991.991,0,0,1-.991.991h2.85a.991.991,0,0,0,.991-.991v-4.176A.991.991,0,0,0,393.315,223.6Z" transform="translate(-313.486 -187.673)" fill="#fd3339"/>
      <path id="Path_138" data-name="Path 138" d="M134.3,213.333h-2.85a.991.991,0,0,1,.991.991V218.5a.991.991,0,0,1-.991.991h2.85a.991.991,0,0,0,.991-.991v-4.176a.991.991,0,0,0-.991-.991Zm0,10.264h-2.85a.991.991,0,0,1,.991.991v4.176a.991.991,0,0,1-.991.991h2.85a.991.991,0,0,0,.991-.991v-4.176a.991.991,0,0,0-.991-.991Zm-11.29-10.264h-2.85a.991.991,0,0,1,.991.991V218.5a.991.991,0,0,1-.991.991h2.85A.991.991,0,0,0,124,218.5v-4.176a.991.991,0,0,0-.991-.991Zm0,10.264h-2.85a.991.991,0,0,1,.991.991v4.176a.991.991,0,0,1-.991.991h2.85a.991.991,0,0,0,.991-.991v-4.176A.991.991,0,0,0,123,223.6Zm-11.29,0h-2.85a.991.991,0,0,1,.991.991v4.176a.991.991,0,0,1-.991.991h2.85a.991.991,0,0,0,.991-.991v-4.176a.991.991,0,0,0-.991-.991Zm22.58,10.264h-2.85a.991.991,0,0,1,.991.991v4.176a.991.991,0,0,1-.991.991h2.85a.991.991,0,0,0,.991-.991v-4.176a.991.991,0,0,0-.991-.991Zm-11.29,0h-2.85a.991.991,0,0,1,.991.991v4.176a.991.991,0,0,1-.991.991h2.85a.991.991,0,0,0,.991-.991v-4.176a.991.991,0,0,0-.991-.991Zm-11.29,0h-2.85a.991.991,0,0,1,.991.991v4.176a.991.991,0,0,1-.991.991h2.85a.991.991,0,0,0,.991-.991v-4.176a.991.991,0,0,0-.991-.991Z" transform="translate(-65.757 -187.673)" fill="#fd3339"/>
      <path id="Path_139" data-name="Path 139" d="M377.358,214.324a.991.991,0,0,0-.991-.991h-.323l-4.844,4.844v.323a.991.991,0,0,0,.991.991h.323l4.844-4.844Zm0,10.264a.991.991,0,0,0-.991-.991h-.323l-4.844,4.844v.323a.991.991,0,0,0,.991.991h.323l4.844-4.844v-.323Z" transform="translate(-296.539 -187.673)" fill="#fd3339"/>
    </g>
    <g id="Group_61" data-name="Group 61" transform="translate(220.737 262.48)">
      <path id="Path_107" data-name="Path 107" d="M133.934,32H122.2a2.2,2.2,0,0,0-2.2,2.2v2.2a.733.733,0,0,0,.733.733h2.934a.733.733,0,0,0,.733-.733V34.2a.734.734,0,0,1,.733-.733H131a.734.734,0,0,1,.733.733v2.2a.733.733,0,0,0,.733.733H135.4a.733.733,0,0,0,.733-.733V34.2A2.2,2.2,0,0,0,133.934,32Z" transform="translate(-94.466)" fill="#463c4b"/>
      <path id="Path_108" data-name="Path 108" d="M132.467,37.134a.733.733,0,0,1-.733-.733V34.2a.734.734,0,0,0-.733-.733h-8.8a.734.734,0,0,0-.733.733v2.2a.733.733,0,0,1-1.467,0V34.2a2.2,2.2,0,0,1,2.2-2.2H131a2.2,2.2,0,0,1,2.2,2.2v2.2A.733.733,0,0,1,132.467,37.134Z" transform="translate(-94.466)" fill="#555a6e"/>
      <path id="Path_109" data-name="Path 109" d="M17.467,106.4H49.735a1.467,1.467,0,0,0,1.467-1.467V83.667A3.667,3.667,0,0,0,47.535,80H19.667A3.667,3.667,0,0,0,16,83.667v21.268A1.467,1.467,0,0,0,17.467,106.4Z" transform="translate(0 -43.6)" fill="#555a6e"/>
      <path id="Path_110" data-name="Path 110" d="M321.467,106.4h4.4a1.467,1.467,0,0,0,1.467-1.467V83.667a3.667,3.667,0,1,0-7.334,0v21.268A1.467,1.467,0,0,0,321.467,106.4Z" transform="translate(-276.132 -43.6)" fill="#463c4b"/>
      <path id="Path_111" data-name="Path 111" d="M40.935,91.734A2.934,2.934,0,0,0,43.868,88.8V83.667A3.667,3.667,0,0,1,47.535,80H19.667A3.667,3.667,0,0,0,16,83.667V88.8a2.934,2.934,0,0,0,2.934,2.934Z" transform="translate(0 -43.6)" fill="#73788c"/>
      <path id="Path_112" data-name="Path 112" d="M135.334,181.867h-5.867A1.467,1.467,0,0,1,128,180.4v-2.934A1.467,1.467,0,0,1,129.467,176h5.867a1.467,1.467,0,0,1,1.467,1.467V180.4A1.467,1.467,0,0,1,135.334,181.867Z" transform="translate(-101.733 -130.799)" fill="#f06423"/>
      <path id="Path_113" data-name="Path 113" d="M133.867,181.867h-4.4A1.467,1.467,0,0,1,128,180.4v-2.934A1.467,1.467,0,0,1,129.467,176h4.4a1.467,1.467,0,0,1,1.467,1.467V180.4A1.467,1.467,0,0,1,133.867,181.867Z" transform="translate(-101.733 -130.799)" fill="#faa019"/>
      <path id="Path_114" data-name="Path 114" d="M160.733,188.4a.733.733,0,0,1-.733-.733v-2.933a.733.733,0,1,1,1.467,0v2.933A.733.733,0,0,1,160.733,188.4Z" transform="translate(-130.799 -138.066)" fill="#f06423"/>
    </g>
  </g>
</svg>
