<svg xmlns="http://www.w3.org/2000/svg" width="76" height="71" viewBox="0 0 76 71">
  <g id="Group_54" data-name="Group 54" transform="translate(-16 -32)">
    <path id="Path_107" data-name="Path 107" d="M144.007,32H123.791A3.8,3.8,0,0,0,120,35.791v3.791a1.264,1.264,0,0,0,1.264,1.264h5.054a1.264,1.264,0,0,0,1.264-1.264V35.791a1.265,1.265,0,0,1,1.264-1.264h10.108a1.265,1.265,0,0,1,1.264,1.264v3.791a1.264,1.264,0,0,0,1.264,1.264h5.054a1.264,1.264,0,0,0,1.264-1.264V35.791A3.8,3.8,0,0,0,144.007,32Z" transform="translate(-87.574)" fill="#463c4b"/>
    <path id="Path_108" data-name="Path 108" d="M141.48,40.845a1.264,1.264,0,0,1-1.264-1.264V35.791a1.265,1.265,0,0,0-1.264-1.264H123.791a1.265,1.265,0,0,0-1.264,1.264v3.791a1.264,1.264,0,0,1-2.527,0V35.791A3.8,3.8,0,0,1,123.791,32h15.163a3.8,3.8,0,0,1,3.791,3.791v3.791A1.264,1.264,0,0,1,141.48,40.845Z" transform="translate(-87.574)" fill="#555a6e"/>
    <path id="Path_109" data-name="Path 109" d="M18.527,125.488h55.6a2.527,2.527,0,0,0,2.527-2.527V86.318A6.318,6.318,0,0,0,70.333,80H22.318A6.318,6.318,0,0,0,16,86.318v36.643A2.527,2.527,0,0,0,18.527,125.488Z" transform="translate(0 -40.419)" fill="#555a6e"/>
    <path id="Path_110" data-name="Path 110" d="M322.527,125.488h7.581a2.527,2.527,0,0,0,2.527-2.527V86.318a6.318,6.318,0,1,0-12.635,0v36.643A2.527,2.527,0,0,0,322.527,125.488Z" transform="translate(-255.985 -40.419)" fill="#463c4b"/>
    <path id="Path_111" data-name="Path 111" d="M58.961,100.217a5.054,5.054,0,0,0,5.054-5.054V86.318A6.318,6.318,0,0,1,70.333,80H22.318A6.318,6.318,0,0,0,16,86.318v8.845a5.054,5.054,0,0,0,5.054,5.054Z" transform="translate(0 -40.419)" fill="#73788c"/>
    <path id="Path_112" data-name="Path 112" d="M140.635,186.108H130.527A2.527,2.527,0,0,1,128,183.581v-5.054A2.527,2.527,0,0,1,130.527,176h10.108a2.527,2.527,0,0,1,2.527,2.527v5.054A2.527,2.527,0,0,1,140.635,186.108Z" transform="translate(-94.31 -121.256)" fill="#f06423"/>
    <path id="Path_113" data-name="Path 113" d="M138.108,186.108h-7.581A2.527,2.527,0,0,1,128,183.581v-5.054A2.527,2.527,0,0,1,130.527,176h7.581a2.527,2.527,0,0,1,2.527,2.527v5.054A2.527,2.527,0,0,1,138.108,186.108Z" transform="translate(-94.31 -121.256)" fill="#faa019"/>
    <path id="Path_114" data-name="Path 114" d="M161.264,191.581A1.264,1.264,0,0,1,160,190.318v-5.054a1.264,1.264,0,1,1,2.527,0v5.054A1.264,1.264,0,0,1,161.264,191.581Z" transform="translate(-121.256 -127.993)" fill="#f06423"/>
    <circle id="Ellipse_20" data-name="Ellipse 20" cx="23" cy="23" r="23" transform="translate(46 57)" fill="#f06423"/>
    <path id="Path_115" data-name="Path 115" d="M209.264,216.007A1.264,1.264,0,0,1,208,214.744,22.77,22.77,0,0,1,230.744,192a1.264,1.264,0,1,1,0,2.527,20.24,20.24,0,0,0-20.217,20.217A1.264,1.264,0,0,1,209.264,216.007Z" transform="translate(-161.675 -134.729)" fill="#faa019"/>
    <circle id="Ellipse_21" data-name="Ellipse 21" cx="20" cy="20" r="20" transform="translate(49 60)" fill="#d7e6f0"/>
    <path id="Path_116" data-name="Path 116" d="M277.9,248a13.9,13.9,0,1,0,9.828,23.727L277.9,261.9Z" transform="translate(-208.83 -181.884)" fill="#faa019"/>
    <path id="Path_117" data-name="Path 117" d="M354.2,245.151a1.26,1.26,0,0,1-.893-.37l-8.935-8.935a1.264,1.264,0,0,1-.37-.893v-17.69a1.264,1.264,0,0,1,2.527,0V234.43l8.565,8.564a1.263,1.263,0,0,1-.894,2.157Z" transform="translate(-276.195 -154.938)" fill="#5faa46"/>
    <ellipse id="Ellipse_22" data-name="Ellipse 22" cx="2" cy="2.5" rx="2" ry="2.5" transform="translate(67 78)" fill="#f06423"/>
    <path id="Path_118" data-name="Path 118" d="M235.791,330.527h-2.527a1.264,1.264,0,0,1,0-2.527h2.527a1.264,1.264,0,0,1,0,2.527Zm32.852,0h-2.527a1.264,1.264,0,0,1,0-2.527h2.527a1.264,1.264,0,1,1,0,2.527Zm-17.69,17.69a1.264,1.264,0,0,1-1.264-1.264v-2.527a1.264,1.264,0,1,1,2.527,0v2.527A1.263,1.263,0,0,1,250.953,348.217Z" transform="translate(-181.884 -249.249)" fill="#a5c3dc"/>
  </g>
</svg>
