<svg xmlns="http://www.w3.org/2000/svg" width="33.965" height="45.64" viewBox="0 0 33.965 45.64">
  <g id="Group_116" data-name="Group 116" transform="translate(0 -0.002)">
    <g id="Group_117" data-name="Group 117" transform="translate(0 0.002)">
      <path id="Path_231" data-name="Path 231" d="M-455.411,0H-486.7a1.337,1.337,0,0,0-1.337,1.337V44.3A1.337,1.337,0,0,0-486.7,45.64h31.291a1.337,1.337,0,0,0,1.337-1.337V1.337A1.337,1.337,0,0,0-455.411,0" transform="translate(488.039)" fill="#f1f1f1"/>
      <path id="Path_232" data-name="Path 232" d="M-218.374,0h-15.646V45.64h15.646a1.337,1.337,0,0,0,1.337-1.337V1.337A1.337,1.337,0,0,0-218.374,0" transform="translate(251.002)" fill="#e1e1e1"/>
      <path id="Path_233" data-name="Path 233" d="M-137.183-37.326h-8.491a1.337,1.337,0,0,1-1.337-1.337A1.337,1.337,0,0,1-145.675-40h8.491a1.337,1.337,0,0,1,1.337,1.337,1.337,1.337,0,0,1-1.337,1.337" transform="translate(166.903 50.133)" fill="#38336b"/>
      <path id="Path_234" data-name="Path 234" d="M-137.183-37.326h-8.491a1.337,1.337,0,0,1-1.337-1.337A1.337,1.337,0,0,1-145.675-40h8.491a1.337,1.337,0,0,1,1.337,1.337,1.337,1.337,0,0,1-1.337,1.337" transform="translate(166.903 58.246)" fill="#38336b"/>
      <path id="Path_235" data-name="Path 235" d="M-137.183-37.326h-8.491a1.337,1.337,0,0,1-1.337-1.337A1.337,1.337,0,0,1-145.675-40h8.491a1.337,1.337,0,0,1,1.337,1.337,1.337,1.337,0,0,1-1.337,1.337" transform="translate(166.903 66.358)" fill="#38336b"/>
      <path id="Path_236" data-name="Path 236" d="M-137.183-37.326h-8.491a1.337,1.337,0,0,1-1.337-1.337A1.337,1.337,0,0,1-145.675-40h8.491a1.337,1.337,0,0,1,1.337,1.337,1.337,1.337,0,0,1-1.337,1.337" transform="translate(166.903 74.781)" fill="#38336b"/>
      <path id="Path_237" data-name="Path 237" d="M-45.38-94.014a1.336,1.336,0,0,1-.945-.392l-1.914-1.914a1.337,1.337,0,0,1,0-1.891,1.337,1.337,0,0,1,1.891,0l.969.969,3.116-3.116a1.337,1.337,0,0,1,1.891,0,1.337,1.337,0,0,1,0,1.891l-4.062,4.062a1.337,1.337,0,0,1-.945.392" transform="translate(52.895 108.418)" fill="#90d960"/>
      <path id="Path_238" data-name="Path 238" d="M-45.38-94.014a1.336,1.336,0,0,1-.945-.392l-1.914-1.914a1.337,1.337,0,0,1,0-1.891,1.337,1.337,0,0,1,1.891,0l.969.969,3.116-3.116a1.337,1.337,0,0,1,1.891,0,1.337,1.337,0,0,1,0,1.891l-4.062,4.062a1.337,1.337,0,0,1-.945.392" transform="translate(52.895 116.531)" fill="#90d960"/>
      <path id="Path_239" data-name="Path 239" d="M-45.38-94.014a1.336,1.336,0,0,1-.945-.392l-1.914-1.914a1.337,1.337,0,0,1,0-1.891,1.337,1.337,0,0,1,1.891,0l.969.969,3.116-3.116a1.337,1.337,0,0,1,1.891,0,1.337,1.337,0,0,1,0,1.891l-4.062,4.062a1.337,1.337,0,0,1-.945.392" transform="translate(52.895 124.642)" fill="#90d960"/>
    </g>
  </g>
</svg>
