<svg id="Group_220" data-name="Group 220" xmlns="http://www.w3.org/2000/svg" width="18.792" height="18.792" viewBox="0 0 18.792 18.792">
  <path id="Path_8025" data-name="Path 8025" d="M120.969,137h-.236l-.44,2.2h1.116Zm8.906,4.4a5.753,5.753,0,0,0,.9,1.6,5.812,5.812,0,0,0,.941-1.6Z" transform="translate(-115.878 -131.972)" fill="#fff"/>
  <path id="Path_8026" data-name="Path 8026" d="M250.9,91H244.06l1.426,11.439a1.709,1.709,0,0,1-.408,1.253l-2.414,2.759H250.9a1.653,1.653,0,0,0,1.652-1.652V92.688A1.685,1.685,0,0,0,250.9,91Zm0,6.093h-.147a6.986,6.986,0,0,1-1.326,2.411c.4.37.837.673,1.267,1.013a.55.55,0,0,1-.688.859c-.467-.369-.906-.677-1.344-1.08-.439.4-.84.711-1.308,1.08a.55.55,0,0,1-.688-.859c.43-.34.826-.643,1.23-1.013a6.949,6.949,0,0,1-1.29-2.411h-.147a.551.551,0,1,1,0-1.1h1.652v-.551a.551.551,0,1,1,1.1,0v.551H250.9a.551.551,0,1,1,0,1.1Z" transform="translate(-233.757 -87.66)" fill="#fff"/>
  <path id="Path_8027" data-name="Path 8027" d="M8.961,1.447A1.654,1.654,0,0,0,7.323,0H1.652A1.653,1.653,0,0,0,0,1.652V13.837a1.653,1.653,0,0,0,1.652,1.652h8.682c.161-.184.3-.3.3-.538,0-.06-1.666-13.444-1.673-13.5Zm-2.21,9.076a.55.55,0,0,1-.648-.432l-.352-1.76H4.195l-.352,1.76a.55.55,0,0,1-1.08-.216l1.1-5.505a.551.551,0,0,1,.54-.442H5.542a.551.551,0,0,1,.54.442l1.1,5.505A.551.551,0,0,1,6.751,10.523ZM6.433,16.59l.094.755a1.665,1.665,0,0,0,.952,1.279L9.327,16.59Z" fill="#fff"/>
</svg>
