<svg id="Group_170" data-name="Group 170" xmlns="http://www.w3.org/2000/svg" width="32.002" height="28" viewBox="0 0 32.002 28">
  <path id="Path_8015" data-name="Path 8015" d="M5,2A3,3,0,0,0,2,5V6A3,3,0,0,0,5,9H22a3,3,0,0,0,3-3V5a3,3,0,0,0-3-3ZM30.5,2A3.5,3.5,0,1,0,34,5.5,3.5,3.5,0,0,0,30.5,2Z" transform="translate(-2 -2)" fill="#fe0000" fill-rule="evenodd"/>
  <path id="Path_8016" data-name="Path 8016" d="M5,12.5a3,3,0,0,0-3,3v1a3,3,0,0,0,3,3H22a3,3,0,0,0,3-3v-1a3,3,0,0,0-3-3Zm25.5,0A3.5,3.5,0,1,0,34,16a3.5,3.5,0,0,0-3.5-3.5Z" transform="translate(-1.998 -2)" fill="#006ec1" fill-rule="evenodd"/>
  <path id="Path_8017" data-name="Path 8017" d="M5,23a3,3,0,0,0-3,3v1a3,3,0,0,0,3,3H22a3,3,0,0,0,3-3V26a3,3,0,0,0-3-3Zm25.5,0A3.5,3.5,0,1,0,34,26.5,3.5,3.5,0,0,0,30.5,23Z" transform="translate(-2 -2)" fill="#f2ac19" fill-rule="evenodd"/>
</svg>
