<svg xmlns="http://www.w3.org/2000/svg" width="23.74" height="22.675" viewBox="0 0 23.74 22.675">
  <g id="Group_164" data-name="Group 164" transform="translate(-123.042 -140)">
    <path id="Path_8012" data-name="Path 8012" d="M134.913,209.5a11.86,11.86,0,0,1-7.958-20.664,1.889,1.889,0,1,1,2.534,2.8,8.087,8.087,0,1,0,10.848,0,1.889,1.889,0,1,1,2.534-2.8,11.862,11.862,0,0,1-7.958,20.663Z" transform="translate(0 -46.828)" fill="#fff"/>
    <path id="Path_8013" data-name="Path 8013" d="M441.89,150.138a1.89,1.89,0,0,1-1.89-1.89V141.89a1.89,1.89,0,1,1,3.779,0v6.359A1.89,1.89,0,0,1,441.89,150.138Z" transform="translate(-306.976)" fill="#fff"/>
  </g>
</svg>
