<svg xmlns="http://www.w3.org/2000/svg" width="78.604" height="56.099" viewBox="0 0 78.604 56.099">
  <g id="Group_111" data-name="Group 111" transform="translate(-2204 -528.295)">
    <path id="Path_24" data-name="Path 24" d="M.768,115.312H5.631a.768.768,0,0,0,.768-.768V74.063a.768.768,0,0,0-.768-.768H.768A.768.768,0,0,0,0,74.063v40.481A.768.768,0,0,0,.768,115.312Z" transform="translate(2204 455)" fill="#0055ca"/>
    <path id="Path_25" data-name="Path 25" d="M25.087,115.312H83.07a.768.768,0,0,0,.768-.768V74.063a.768.768,0,0,0-.768-.768H25.087a.768.768,0,0,0-.768.768v40.481A.768.768,0,0,0,25.087,115.312Z" transform="translate(2183.415 455)" fill="#0066ed"/>
    <path id="Path_26" data-name="Path 26" d="M50.768,161.176H55.6a.768.768,0,0,0,.768-.768V119.928a.768.768,0,0,0-.768-.768H50.768a.768.768,0,0,0-.768.768v40.481A.768.768,0,0,0,50.768,161.176Z" transform="translate(2161.676 416.176)" fill="#65befc"/>
    <path id="Path_27" data-name="Path 27" d="M76.151,161.176h57.82a.768.768,0,0,0,.768-.768V119.928a.768.768,0,0,0-.768-.768H76.151a.768.768,0,0,0-.768.768v40.481A.768.768,0,0,0,76.151,161.176Z" transform="translate(2140.19 416.176)" fill="#93d0fd"/>
    <path id="Path_28" data-name="Path 28" d="M100.768,207.041h5.393a.768.768,0,0,0,.768-.768V165.792a.768.768,0,0,0-.768-.768h-5.393a.768.768,0,0,0-.768.768v40.481A.768.768,0,0,0,100.768,207.041Z" transform="translate(2119.353 377.354)" fill="#d9e7ec"/>
    <path id="Path_29" data-name="Path 29" d="M131.3,165.024a.768.768,0,0,0-.768.768v40.481a.768.768,0,0,0,.768.768h45.244a37.656,37.656,0,0,0,9.875-42.017Z" transform="translate(2093.508 377.354)" fill="#fff"/>
    <path id="Path_36" data-name="Path 36" d="M188.329,165.024a.768.768,0,0,1,.768.768v40.481a.768.768,0,0,1-.768.768H143.085a37.656,37.656,0,0,1-9.875-42.017Z" transform="translate(2093.508 377.354)" fill="#fff"/>
    <path id="Path_30" data-name="Path 30" d="M163.8,221.932a1.151,1.151,0,0,1-1.151-1.151V213.7h-7.141v7.076a1.151,1.151,0,1,1-2.3,0v-7.155a2.227,2.227,0,0,1,2.225-2.225h7.3a2.227,2.227,0,0,1,2.225,2.225v7.155a1.151,1.151,0,0,1-1.151,1.151Zm-13.068,16.889h-4.07a1.535,1.535,0,0,1-1.535-1.535V220.324a1.535,1.535,0,0,1,1.535-1.535h4.07a1.535,1.535,0,0,1,1.535,1.535v16.962A1.535,1.535,0,0,1,150.731,238.821Z" transform="translate(2081.154 338.096)" fill="#00429c"/>
    <path id="Path_31" data-name="Path 31" d="M192.549,279.548H171.535A1.535,1.535,0,0,1,170,278.012V261.05a1.535,1.535,0,0,1,1.535-1.535h21.013a1.535,1.535,0,0,1,1.535,1.535v16.962A1.535,1.535,0,0,1,192.549,279.548Z" transform="translate(2060.099 297.369)" fill="#0055ca"/>
    <path id="Path_32" data-name="Path 32" d="M146.141,249.3h-4.606A1.535,1.535,0,0,1,140,247.766v-6.23A1.535,1.535,0,0,1,141.535,240h4.606a1.535,1.535,0,0,1,1.535,1.535v6.23A1.535,1.535,0,0,1,146.141,249.3Z" transform="translate(2085.493 313.888)" fill="#0055ca"/>
    <path id="Path_33" data-name="Path 33" d="M184.871,249.3H161.535A1.535,1.535,0,0,1,160,247.766v-6.23A1.535,1.535,0,0,1,161.535,240h23.336a1.535,1.535,0,0,1,1.535,1.535v6.23A1.535,1.535,0,0,1,184.871,249.3Z" transform="translate(2068.563 313.888)" fill="#0066ed"/>
    <path id="Path_34" data-name="Path 34" d="M217.525,294.428h-4.887a1.35,1.35,0,0,1-1.35-1.35v-.37a1.35,1.35,0,0,1,1.35-1.35h4.887a1.35,1.35,0,0,1,1.35,1.35v.37a1.351,1.351,0,0,1-1.35,1.35Z" transform="translate(2025.151 270.416)" fill="#ffcd6b"/>
    <g id="Group_28" data-name="Group 28" transform="translate(2265.409 555.423)">
      <path id="Path_35" data-name="Path 35" d="M410.283,261.514h-9.132a1.151,1.151,0,0,1,0-2.3h9.132a1.151,1.151,0,0,1,0,2.3Zm-4.765,9.211h-4.368a1.151,1.151,0,0,1,0-2.3h4.367a1.151,1.151,0,0,1,0,2.3Zm3.152-4.606h-7.52a1.151,1.151,0,1,1,0-2.3h7.519a1.151,1.151,0,1,1,0,2.3Zm1.613-13.817h-9.132a1.151,1.151,0,0,1,0-2.3h9.132a1.151,1.151,0,1,1,0,2.3Zm2.382,4.606H401.151a1.151,1.151,0,0,1,0-2.3h11.514a1.151,1.151,0,1,1,0,2.3Z" transform="translate(-400 -250)" fill="#c5d3dd"/>
    </g>
    <circle id="Ellipse_5" data-name="Ellipse 5" cx="1.535" cy="1.535" r="1.535" transform="translate(2259.269 555.04)" fill="#ffcd6b"/>
    <circle id="Ellipse_6" data-name="Ellipse 6" cx="1.211" cy="1.211" r="1.211" transform="translate(2259.726 560.523)" fill="#00c53b"/>
    <ellipse id="Ellipse_7" data-name="Ellipse 7" cx="1.211" cy="1.817" rx="1.211" ry="1.817" transform="translate(2259.726 564.157)" fill="#65befc"/>
    <ellipse id="Ellipse_8" data-name="Ellipse 8" cx="1.211" cy="1.817" rx="1.211" ry="1.817" transform="translate(2259.726 569.003)" fill="#ffcd6b"/>
    <ellipse id="Ellipse_9" data-name="Ellipse 9" cx="1.211" cy="1.817" rx="1.211" ry="1.817" transform="translate(2259.726 573.849)" fill="#00b327"/>
  </g>
</svg>
