<svg xmlns="http://www.w3.org/2000/svg" width="21.9" height="17.109" viewBox="0 0 21.9 17.109">
  <g id="Group_160" data-name="Group 160" transform="translate(0 -56)">
    <path id="Path_8006" data-name="Path 8006" d="M19.761,56H2.139A2.139,2.139,0,0,0,0,58.139V70.971a2.139,2.139,0,0,0,2.139,2.139H19.761A2.139,2.139,0,0,0,21.9,70.971V58.139A2.139,2.139,0,0,0,19.761,56ZM6.792,59.7a2.37,2.37,0,1,1-2.37,2.37A2.369,2.369,0,0,1,6.792,59.7Zm3.1,9.71H3.7a1.284,1.284,0,0,1-1.223-1.672l.71-2.211a1.065,1.065,0,0,1,1.459-.646,5.1,5.1,0,0,0,2.147.449A5.085,5.085,0,0,0,8.94,64.88a1.067,1.067,0,0,1,1.459.646l.71,2.211a1.279,1.279,0,0,1-1.219,1.672Zm8.974-2.844H14.072a.6.6,0,1,1,0-1.2h4.791a.6.6,0,1,1,0,1.2Zm0-2.139H14.072a.6.6,0,1,1,0-1.2h4.791a.6.6,0,1,1,0,1.2Zm0-2.139H14.072a.6.6,0,1,1,0-1.2h4.791a.6.6,0,1,1,0,1.2Z" fill="#fff"/>
  </g>
</svg>
