<svg id="Group_212" data-name="Group 212" xmlns="http://www.w3.org/2000/svg" width="28.055" height="33.672" viewBox="0 0 28.055 33.672">
  <path id="Path_8021" data-name="Path 8021" d="M29.188,23.729a9.4,9.4,0,0,1-3.338-7.19V12.627a9.829,9.829,0,0,0-8.418-9.709V1.4a1.4,1.4,0,0,0-2.806,0V2.918a9.828,9.828,0,0,0-8.418,9.709v3.912a9.407,9.407,0,0,1-3.35,7.2,2.458,2.458,0,0,0,1.6,4.32H27.6a2.455,2.455,0,0,0,1.584-4.331ZM16.029,33.672a5.27,5.27,0,0,0,5.155-4.209H10.874A5.27,5.27,0,0,0,16.029,33.672Z" transform="translate(-2.004)" fill="#e44200"/>
</svg>
