<svg xmlns="http://www.w3.org/2000/svg" width="16.523" height="17.242" viewBox="0 0 16.523 17.242">
  <g id="Group_214" data-name="Group 214" transform="translate(0)">
    <path id="Path_8022" data-name="Path 8022" d="M133.747,344.206a2.874,2.874,0,1,1-2.874-2.874A2.874,2.874,0,0,1,133.747,344.206Zm0,0" transform="translate(-123.69 -329.837)" fill="#ffa000"/>
    <path id="Path_8023" data-name="Path 8023" d="M12.219,49.8A5.017,5.017,0,0,1,8.328,42.8,5.012,5.012,0,0,0,2.155,47.7v2A4.817,4.817,0,0,1,.44,53.387,1.257,1.257,0,0,0,1.257,55.6H13.111a1.257,1.257,0,0,0,.81-2.219A4.81,4.81,0,0,1,12.219,49.8Zm0,0" transform="translate(0 -41.231)" fill="#ffc107"/>
    <path id="Path_8024" data-name="Path 8024" d="M284.516,3.592A3.592,3.592,0,1,1,280.924,0,3.592,3.592,0,0,1,284.516,3.592Zm0,0" transform="translate(-267.993)" fill="#f44336"/>
  </g>
</svg>
