<svg xmlns="http://www.w3.org/2000/svg" xmlns:xlink="http://www.w3.org/1999/xlink" width="38.218" height="36.699" viewBox="0 0 38.218 36.699">
  <defs>
    <clipPath id="clip-path">
      <path id="Path_266" data-name="Path 266" d="M4.8,24.221V49.767H35.847a2.986,2.986,0,0,0,2.986-2.986V24.222Z" transform="translate(-4.796 -24.221)" fill="#5cbeff"/>
    </clipPath>
  </defs>
  <g id="Group_119" data-name="Group 119" transform="translate(-1.958 -9.086)">
    <path id="Intersection_1" data-name="Intersection 1" d="M2.986,25.545A2.985,2.985,0,0,1,0,22.56V0H34.037V22.56a2.986,2.986,0,0,1-2.986,2.986Z" transform="translate(4.048 20.234)" fill="#5cbeff"/>
    <g id="Mask_Group_11" data-name="Mask Group 11" transform="translate(4.048 20.233)" clip-path="url(#clip-path)">
      <path id="Path_255" data-name="Path 255" d="M48.35,24.221V49.767H40.916A2.987,2.987,0,0,0,43.9,46.781V24.222Z" transform="translate(-14.313 -24.221)" fill="#079cff"/>
    </g>
    <path id="Path_256" data-name="Path 256" d="M4.8,24.221H38.833v5.046H4.8Z" transform="translate(-0.748 -3.988)" fill="#079cff"/>
    <path id="Path_257" data-name="Path 257" d="M40.176,19.32v4.873a1.893,1.893,0,0,1-1.893,1.893H3.851a1.894,1.894,0,0,1-1.893-1.893V19.32a1.894,1.894,0,0,1,1.893-1.893H38.283a1.893,1.893,0,0,1,1.893,1.893Z" transform="translate(0 -2.198)" fill="#5cbeff"/>
    <path id="Path_258" data-name="Path 258" d="M50.975,19.32v4.873a1.893,1.893,0,0,1-1.893,1.893H42.943a1.894,1.894,0,0,0,1.893-1.893V19.32a1.894,1.894,0,0,0-1.893-1.893h6.139a1.893,1.893,0,0,1,1.893,1.893Z" transform="translate(-10.799 -2.198)" fill="#079cff"/>
    <path id="Path_259" data-name="Path 259" d="M21.86,17.427h8.9V47.983h-8.9Z" transform="translate(-5.244 -2.198)" fill="#ffd80c"/>
    <path id="Path_260" data-name="Path 260" d="M21.86,29.183h8.9v1.391h-8.9Z" transform="translate(-5.244 -5.295)" fill="#ffbe00"/>
    <path id="Path_261" data-name="Path 261" d="M40.179,15.229H27.9a6.138,6.138,0,1,1,12.276,0Z" transform="translate(-6.836)" fill="#ffd80c"/>
    <path id="Path_262" data-name="Path 262" d="M40.181,15.492H27.9a6.206,6.206,0,0,1,.15-1.343h7.023a2.462,2.462,0,0,0,1.9-4.037l-.029-.029a6.135,6.135,0,0,1,3.23,5.41Z" transform="translate(-6.836 -0.262)" fill="#ffbe00"/>
    <path id="Path_263" data-name="Path 263" d="M11.236,15.229H23.511a6.138,6.138,0,1,0-12.275,0Z" transform="translate(-2.445)" fill="#ffd80c"/>
    <path id="Path_264" data-name="Path 264" d="M11.234,15.492H23.511a6.206,6.206,0,0,0-.15-1.343H16.339a2.462,2.462,0,0,1-1.9-4.037l.029-.029a6.135,6.135,0,0,0-3.23,5.41Z" transform="translate(-2.444 -0.262)" fill="#ffbe00"/>
    <path id="Path_265" data-name="Path 265" d="M30.363,16.057H22.7a3.83,3.83,0,1,1,7.66,0Z" transform="translate(-5.466 -0.828)" fill="#ffd80c"/>
  </g>
</svg>
