<svg xmlns="http://www.w3.org/2000/svg" width="28.644" height="19.385" viewBox="0 0 28.644 19.385">
  <g id="Group_25" data-name="Group 25" transform="translate(-152.25 -201.345)">
    <g id="Group_1" data-name="Group 1" transform="translate(161.363 207.87)">
      <path id="Path_1" data-name="Path 1" d="M214.466,246.087h1.413v.834h.023a2.265,2.265,0,0,1,.886-.776,2.666,2.666,0,0,1,1.175-.255,3.162,3.162,0,0,1,1.268.243,3.517,3.517,0,0,1,1.725,1.876,3.729,3.729,0,0,1,.226,1.3,3.482,3.482,0,0,1-.9,2.385,2.955,2.955,0,0,1-2.316,1.019,2.7,2.7,0,0,1-1.083-.208,2.181,2.181,0,0,1-.851-.683l-.023-.011v2.837h-1.54Zm1.986,1.864a1.875,1.875,0,0,0-.538,1.355,2.1,2.1,0,0,0,.145.782,1.683,1.683,0,0,0,.457.642,2.008,2.008,0,0,0,.428.284,1.864,1.864,0,0,0,.486.168.769.769,0,0,0,.156.029c.05,0,.1.006.156.006a1.812,1.812,0,0,0,1.36-.557,1.985,1.985,0,0,0,.012-2.706,1.718,1.718,0,0,0-1.314-.569A1.84,1.84,0,0,0,216.452,247.951Z" transform="translate(-214.466 -245.89)" fill="#fff"/>
    </g>
    <g id="Group_2" data-name="Group 2" transform="translate(169.005 207.87)">
      <path id="Path_2" data-name="Path 2" d="M266.64,246.087h1.413v.834h.023a2.265,2.265,0,0,1,.886-.776,2.666,2.666,0,0,1,1.175-.255,3.162,3.162,0,0,1,1.268.243,3.517,3.517,0,0,1,1.725,1.876,3.73,3.73,0,0,1,.226,1.3,3.482,3.482,0,0,1-.9,2.385,2.955,2.955,0,0,1-2.316,1.019,2.7,2.7,0,0,1-1.083-.208,2.182,2.182,0,0,1-.851-.683l-.023-.011v2.837h-1.54Zm1.986,1.864a1.875,1.875,0,0,0-.538,1.355,2.1,2.1,0,0,0,.145.782,1.682,1.682,0,0,0,.457.642,2.007,2.007,0,0,0,.428.284,1.863,1.863,0,0,0,.486.168.769.769,0,0,0,.156.029c.05,0,.1.006.156.006a1.811,1.811,0,0,0,1.36-.557,1.985,1.985,0,0,0,.012-2.706,1.718,1.718,0,0,0-1.314-.569A1.84,1.84,0,0,0,268.626,247.951Z" transform="translate(-266.64 -245.89)" fill="#fff"/>
    </g>
    <g id="Group_3" data-name="Group 3" transform="translate(176.242 207.87)">
      <path id="Path_3" data-name="Path 3" d="M319.01,247.847a.48.48,0,0,0-.2-.336.667.667,0,0,0-.388-.116.684.684,0,0,0-.428.133.472.472,0,0,0-.174.4v.012a.367.367,0,0,0,.162.342,1.53,1.53,0,0,0,.37.191l.18.046q.087.024.156.046a5.846,5.846,0,0,1,1.39.608,1.441,1.441,0,0,1,.614,1.337,2.155,2.155,0,0,1-.162.84,2.087,2.087,0,0,1-.486.7,2.432,2.432,0,0,1-.6.394,2.93,2.93,0,0,1-.7.232l-.185.023a1.487,1.487,0,0,1-.185.012,2.3,2.3,0,0,1-1.639-.614,2.2,2.2,0,0,1-.689-1.6h1.575a.964.964,0,0,0,.266.521.735.735,0,0,0,.544.209.838.838,0,0,0,.5-.156.526.526,0,0,0,.22-.457.52.52,0,0,0-.214-.446,1.828,1.828,0,0,0-.48-.25,1.693,1.693,0,0,0-.2-.076c-.066-.019-.129-.041-.191-.064s-.1-.031-.15-.046l-.139-.046q-.128-.047-.243-.093t-.232-.1a1.988,1.988,0,0,1-.191-.11,1.689,1.689,0,0,1-.2-.157,1.776,1.776,0,0,1-.469-.6,1.744,1.744,0,0,1-.156-.743,1.775,1.775,0,0,1,.66-1.439,2.3,2.3,0,0,1,1.505-.546,2.1,2.1,0,0,1,1.436.57,1.793,1.793,0,0,1,.637,1.387Z" transform="translate(-316.046 -245.89)" fill="#fff"/>
    </g>
    <g id="Group_4" data-name="Group 4" transform="translate(153.443 207.87)">
      <path id="Path_4" data-name="Path 4" d="M165.755,246.087V247a2.564,2.564,0,0,0-.938-.828,2.636,2.636,0,0,0-1.216-.284,3.117,3.117,0,0,0-1.2.233l1.182,1.287a2.248,2.248,0,0,1,.275-.015,1.714,1.714,0,0,1,1.337.538,1.9,1.9,0,0,1,.515,1.349v.012a1.937,1.937,0,0,1-.521,1.378,1.737,1.737,0,0,1-1.355.544,1.824,1.824,0,0,1-1.337-.527,1.764,1.764,0,0,1-.562-1.326,2.335,2.335,0,0,1,.043-.448l-1.192-1.3a2.866,2.866,0,0,0-.2.448,4.052,4.052,0,0,0,.017,2.513,3.41,3.41,0,0,0,.591,1.065,2.95,2.95,0,0,0,1.019.782,3.115,3.115,0,0,0,1.343.284,2.044,2.044,0,0,0,.214-.012l.214-.023a3.167,3.167,0,0,0,.984-.359,2.258,2.258,0,0,0,.764-.683h.023v.868h1.413v-6.415Z" transform="translate(-160.394 -245.89)" fill="#fff"/>
    </g>
    <g id="Group_5" data-name="Group 5" transform="translate(152.25 206.633)">
      <path id="Path_5" data-name="Path 5" d="M157.174,240.888a0,0,0,0,0,0,0c-.006,0-.016-.008-.023-.014a1.026,1.026,0,0,0-.663-.252h-.009a.868.868,0,0,0-.11.006c-.032,0-.063.011-.094.017a.653.653,0,0,1,.094-.017h-.012a2.273,2.273,0,0,1-1.916-2v-.014a.274.274,0,0,0,0-.051v-.019a.944.944,0,0,0-.255-.58,1.035,1.035,0,1,0-1.433,1.4,1.076,1.076,0,0,0,.381.193,1.049,1.049,0,0,0,.281.037c.033,0,.065,0,.1,0a2.914,2.914,0,0,1,1.976,1.937c0,.014,0,.028,0,.043a.765.765,0,0,0,.027.2.722.722,0,0,0,.034.116.03.03,0,0,1,0,.011,1.035,1.035,0,1,0,1.631-1.008Z" transform="translate(-152.25 -237.445)" fill="#fff"/>
    </g>
    <g id="Group_6" data-name="Group 6" transform="translate(152.988 203.992)">
      <circle id="Ellipse_1" data-name="Ellipse 1" cx="0.926" cy="0.926" r="0.926" transform="translate(0 0)" fill="#fff"/>
    </g>
    <g id="Group_7" data-name="Group 7" transform="translate(156.641 201.345)">
      <path id="Path_6" data-name="Path 6" d="M184.119,215.959a1.821,1.821,0,0,1-1.345-.548,1.9,1.9,0,0,1,2.694-2.694,1.821,1.821,0,0,1,.549,1.345v1.386a.479.479,0,0,1-.141.359.5.5,0,0,1-.363.137.471.471,0,0,1-.5-.5v-1.386a.852.852,0,0,0-.263-.63.87.87,0,0,0-.634-.259.886.886,0,0,0-.889.889.869.869,0,0,0,.259.634.851.851,0,0,0,.63.263.5.5,0,0,1,.363.137.479.479,0,0,1,.141.359.483.483,0,0,1-.5.5Z" transform="translate(-182.229 -210.586)" fill="#fff"/>
      <path id="Path_7" data-name="Path 7" d="M211.814,213.765v1.682a.48.48,0,0,1-.141.359.5.5,0,0,1-.363.137.471.471,0,0,1-.5-.5v-1.682a1.535,1.535,0,0,1,.463-1.134,1.553,1.553,0,0,1,1.138-.459.482.482,0,0,1,.5.5q0,.46-.511.5a.672.672,0,0,0-.419.182A.544.544,0,0,0,211.814,213.765Z" transform="translate(-206.627 -210.586)" fill="#fff"/>
      <path id="Path_8" data-name="Path 8" d="M229.753,215.959a1.821,1.821,0,0,1-1.345-.548,1.9,1.9,0,0,1,2.694-2.694,1.821,1.821,0,0,1,.548,1.345v1.386a.479.479,0,0,1-.141.359.5.5,0,0,1-.363.137.471.471,0,0,1-.5-.5v-1.386a.852.852,0,0,0-.263-.63.87.87,0,0,0-.634-.259.886.886,0,0,0-.889.889.869.869,0,0,0,.259.634.851.851,0,0,0,.63.263.5.5,0,0,1,.363.137.479.479,0,0,1,.141.359.483.483,0,0,1-.5.5Z" transform="translate(-221.179 -210.586)" fill="#fff"/>
      <path id="Path_9" data-name="Path 9" d="M258.338,203.305a1.9,1.9,0,1,1-1.89,1.9V202.3a.481.481,0,0,1,.5-.5.5.5,0,0,1,.363.137.479.479,0,0,1,.141.359V205.2a.886.886,0,0,0,.89.889.869.869,0,0,0,.633-.259.852.852,0,0,0,.263-.63.9.9,0,0,0-.9-.9.471.471,0,0,1-.5-.5.5.5,0,0,1,.137-.363A.479.479,0,0,1,258.338,203.305Z" transform="translate(-245.577 -201.734)" fill="#fff"/>
      <path id="Path_10" data-name="Path 10" d="M285.273,201.527a.608.608,0,1,1-.434-.182A.592.592,0,0,1,285.273,201.527Zm.07,1.9a.442.442,0,0,0-.5-.5.471.471,0,0,0-.5.5v2.779a.471.471,0,0,0,.5.5.5.5,0,0,0,.363-.137.479.479,0,0,0,.141-.359Z" transform="translate(-269.284 -201.345)" fill="#fff"/>
      <path id="Path_11" data-name="Path 11" d="M296.536,215.959a1.821,1.821,0,0,1-1.345-.548,1.9,1.9,0,1,1,3.242-1.349v1.386a.479.479,0,0,1-.141.359.5.5,0,0,1-.363.137.471.471,0,0,1-.5-.5v-1.386a.852.852,0,0,0-.263-.63.87.87,0,0,0-.633-.259.885.885,0,0,0-.889.889.869.869,0,0,0,.259.634.851.851,0,0,0,.63.263.5.5,0,0,1,.363.137.479.479,0,0,1,.141.359.483.483,0,0,1-.5.5Z" transform="translate(-278.18 -210.586)" fill="#fff"/>
    </g>
    <g id="Group_22" data-name="Group 22" transform="translate(158.287 216.276)">
      <g id="Group_11" data-name="Group 11" transform="translate(0)">
        <g id="Group_8" data-name="Group 8" transform="translate(0 1.213)">
          <path id="Path_12" data-name="Path 12" d="M198.722,311.561v1.007a.189.189,0,0,1-.213.2.179.179,0,0,1-.2-.2v-1.007h-.8v1.007a.18.18,0,0,1-.2.2.2.2,0,0,1-.2-.2v-1.007h-.809v1.007a.191.191,0,0,1-.062.144.2.2,0,0,1-.283,0,.191.191,0,0,1-.062-.144v-1.007h-.81v2.02a.382.382,0,0,1-.117.28.4.4,0,0,1-.687-.28v-2.02h-.809v2.02a1.211,1.211,0,1,0,2.423,0v-.02a1.129,1.129,0,0,0,.2.02,1.007,1.007,0,0,1,1.213,0,.984.984,0,0,0,.6-.2,1.012,1.012,0,0,0,.6.2h.009a1.009,1.009,0,0,0,.725-.292.979.979,0,0,0,.293-.72v-1.007Z" transform="translate(-193.464 -311.561)" fill="#fff"/>
        </g>
        <g id="Group_9" data-name="Group 9" transform="translate(5.258 3.63)">
          <path id="Path_13" data-name="Path 13" d="M230.168,328.469a.4.4,0,1,1-.117-.289A.389.389,0,0,1,230.168,328.469Z" transform="translate(-229.358 -328.063)" fill="#fff"/>
        </g>
        <g id="Group_10" data-name="Group 10" transform="translate(5.661)">
          <path id="Path_14" data-name="Path 14" d="M234.535,303.282a.8.8,0,0,1-.809.809h-1.613a.8.8,0,0,1,.809-.809Zm-.809,3.232h-.8v-2.323h.8Z" transform="translate(-232.112 -303.282)" fill="#fff"/>
        </g>
      </g>
      <g id="Group_21" data-name="Group 21" transform="translate(9.093)">
        <g id="Group_12" data-name="Group 12">
          <path id="Path_15" data-name="Path 15" d="M259.178,304.495V305.5a.179.179,0,0,1-.2.2.192.192,0,0,1-.14-.059.2.2,0,0,1-.059-.144v-1.007h-.809V305.5a.179.179,0,0,1-.2.2.193.193,0,0,1-.138-.058.2.2,0,0,1-.059-.144v-1.007h-.81V305.5a.178.178,0,0,1-.2.2.189.189,0,0,1-.212-.2v-2.22h-.81v2.22a.979.979,0,0,0,.293.72,1.009,1.009,0,0,0,.722.292h.012a.972.972,0,0,0,.595-.2,1,1,0,0,0,.6.2h.009a.971.971,0,0,0,.6-.2,1,1,0,0,0,.6.2h0a1,1,0,0,0,1.01-1.012v-1.007Z" transform="translate(-255.545 -303.282)" fill="#fff"/>
        </g>
        <g id="Group_18" data-name="Group 18" transform="translate(0.167 3.63)">
          <g id="Group_13" data-name="Group 13" transform="translate(0 0.015)">
            <path id="Path_16" data-name="Path 16" d="M257.493,328.568a.4.4,0,1,1-.117-.289A.39.39,0,0,1,257.493,328.568Z" transform="translate(-256.683 -328.162)" fill="#fff"/>
          </g>
          <g id="Group_14" data-name="Group 14" transform="translate(0.81 0.015)">
            <path id="Path_17" data-name="Path 17" d="M263.014,328.568a.4.4,0,1,1-.117-.289A.39.39,0,0,1,263.014,328.568Z" transform="translate(-262.21 -328.162)" fill="#fff"/>
          </g>
          <g id="Group_15" data-name="Group 15" transform="translate(1.721)">
            <path id="Path_18" data-name="Path 18" d="M269.239,328.469a.4.4,0,1,1-.117-.289A.389.389,0,0,1,269.239,328.469Z" transform="translate(-268.429 -328.063)" fill="#fff"/>
          </g>
          <g id="Group_16" data-name="Group 16" transform="translate(2.66)">
            <path id="Path_19" data-name="Path 19" d="M275.655,328.469a.407.407,0,1,1-.406-.406.4.4,0,0,1,.406.406Z" transform="translate(-274.845 -328.063)" fill="#fff"/>
          </g>
          <g id="Group_17" data-name="Group 17" transform="translate(3.47)">
            <path id="Path_20" data-name="Path 20" d="M281.176,328.469a.4.4,0,1,1-.117-.289A.39.39,0,0,1,281.176,328.469Z" transform="translate(-280.372 -328.063)" fill="#fff"/>
          </g>
        </g>
        <g id="Group_19" data-name="Group 19" transform="translate(4.634 1.213)">
          <path id="Path_21" data-name="Path 21" d="M288.194,313.775a1,1,0,0,1-1.013,1.013v-.81a.18.18,0,0,0,.2-.2v-2.214h.81Z" transform="translate(-287.181 -311.561)" fill="#fff"/>
        </g>
        <g id="Group_20" data-name="Group 20" transform="translate(5.24)">
          <path id="Path_22" data-name="Path 22" d="M293.745,303.282a.8.8,0,0,1-.809.809h-1.613a.8.8,0,0,1,.809-.809Zm-.809,3.232h-.8v-2.323h.8Z" transform="translate(-291.322 -303.282)" fill="#fff"/>
        </g>
      </g>
    </g>
    <g id="Group_23" data-name="Group 23" transform="translate(152.351 217.943)">
      <rect id="Rectangle_1" data-name="Rectangle 1" width="4.226" height="0.408" transform="translate(0 0)" fill="#fff"/>
    </g>
    <g id="Group_24" data-name="Group 24" transform="translate(176.667 217.943)">
      <rect id="Rectangle_2" data-name="Rectangle 2" width="4.226" height="0.408" transform="translate(0 0)" fill="#fff"/>
    </g>
  </g>
</svg>
