<svg xmlns="http://www.w3.org/2000/svg" width="10.866" height="23.99" viewBox="0 0 10.866 23.99">
  <g id="Group_161" data-name="Group 161" transform="translate(-19.32 -4.005)">
    <path id="Path_8007" data-name="Path 8007" d="M29.561,24.692c-.463.18-1.928.608-2.6.227a.658.658,0,0,1-.326-.518c-.21-1.337.788-4.426,1.328-6.084.18-.553.309-.955.36-1.2.39-1.8.2-3.184-.574-4.1A4.312,4.312,0,0,0,23.828,11.9a15.275,15.275,0,0,0-3.989,1.1.424.424,0,0,0-.231.3l-.279,1.333a.431.431,0,0,0,.141.411.442.442,0,0,0,.428.077c.51-.189,2.1-.613,2.674-.09.321.3.231.921.1,1.388-.133.488-.291,1.015-.454,1.568-1.054,3.586-2.254,7.653-.351,8.921A5.33,5.33,0,0,0,25,28a12.435,12.435,0,0,0,4.469-1.153.428.428,0,0,0,.253-.27l.407-1.358a.434.434,0,0,0-.12-.441.426.426,0,0,0-.446-.081ZM27.084,4.005a3.1,3.1,0,1,0,3.1,3.1A3.1,3.1,0,0,0,27.084,4.005Z" fill="#fff"/>
  </g>
</svg>
