<svg id="Group_112" data-name="Group 112" xmlns="http://www.w3.org/2000/svg" width="64.91" height="64.91" viewBox="0 0 64.91 64.91">
  <path id="Path_38" data-name="Path 38" d="M40.5,84.377H61.9v22.2H40.5Z" transform="translate(-35.367 -73.68)" fill="#fe7701"/>
  <path id="Path_39" data-name="Path 39" d="M262.244,242.482v21.374h30.142a1.521,1.521,0,0,0,1.521-1.521V242.482a5.277,5.277,0,0,0-5.277-5.277H267.521A5.277,5.277,0,0,0,262.244,242.482Z" transform="translate(-228.997 -207.133)" fill="#3c87d0"/>
  <path id="Path_40" data-name="Path 40" d="M281.506,250.661a9.51,9.51,0,0,0-9.5-9.5h-1a12.114,12.114,0,0,0,2.019-3.958h-5.508a5.277,5.277,0,0,0-5.277,5.277v21.374h19.262Z" transform="translate(-228.997 -207.132)" fill="#0078c8"/>
  <path id="Path_41" data-name="Path 41" d="M357.8,228.892l-3.166,2.381v.786l2.866,2.866a.507.507,0,0,0,.855-.254l1-4.724Zm-6.333,0,3.166,2.381v.786l-2.866,2.866a.507.507,0,0,1-.855-.254l-1-4.724Z" transform="translate(-305.556 -199.874)" fill="#7bacdf"/>
  <path id="Path_42" data-name="Path 42" d="M368.48,201.63l-2.628,2.628a.761.761,0,0,1-1.076,0l-2.628-2.628v-3.958h6.333Z" transform="translate(-316.235 -172.612)" fill="#f6a96c"/>
  <path id="Path_43" data-name="Path 43" d="M324.163,67.078v9.96a7.916,7.916,0,0,0,15.832,0l1.773-2.639-1.773-2.285V67.078Z" transform="translate(-283.066 -58.574)" fill="#fed2a4"/>
  <path id="Path_44" data-name="Path 44" d="M324.163,77.039a7.917,7.917,0,0,0,4.794,7.276,4.22,4.22,0,0,0,1.483-3.21V75.482a12.178,12.178,0,0,0-3.38-8.4h-2.9Z" transform="translate(-283.066 -58.575)" fill="#ffbd86"/>
  <path id="Path_45" data-name="Path 45" d="M302.745,8.444v5.906l1.528-.809h1.319l.88-2.972A2.428,2.428,0,0,1,308.8,8.83h9.284a2.428,2.428,0,0,1,2.328,1.738l.88,2.972h1.319l1.528.809V8.444A8.444,8.444,0,0,0,315.7,0h-4.507A8.444,8.444,0,0,0,302.745,8.444Z" transform="translate(-264.364)" fill="#d77f4a"/>
  <path id="Path_46" data-name="Path 46" d="M308.139,39.125a8.387,8.387,0,0,0-4.405-3.8,8.4,8.4,0,0,0-.989,3.966v5.906l1.528-.809h1.319l.88-2.972a2.426,2.426,0,0,1,2.19-1.732Q308.41,39.394,308.139,39.125Z" transform="translate(-264.364 -30.844)" fill="#c86d36"/>
  <path id="Path_47" data-name="Path 47" d="M450.359,104.014a2.622,2.622,0,0,0-1.319.356v4.921h1.319a2.639,2.639,0,0,0,0-5.277Z" transform="translate(-392.111 -90.827)" fill="#f6a96c"/>
  <path id="Path_48" data-name="Path 48" d="M31.663,242.482v21.374H1.521A1.521,1.521,0,0,1,0,262.335V242.482A5.277,5.277,0,0,1,5.277,237.2H8.444l7.454,3.168L23.22,237.2h3.166A5.277,5.277,0,0,1,31.663,242.482Z" transform="translate(0 -207.133)" fill="#80d261"/>
  <path id="Path_49" data-name="Path 49" d="M97.821,250.661a9.51,9.51,0,0,1,9.5-9.5h1a12.147,12.147,0,0,1-1.226-1.952c-.321-.639-.587-.367-.793-1.063l2.342-.943h3.166a5.277,5.277,0,0,1,5.277,5.277v21.374H97.821Z" transform="translate(-85.419 -207.132)" fill="#68ca44"/>
  <path id="Path_50" data-name="Path 50" d="M77.156,202.685v-5.012H70.824v5.012H66.6a4.222,4.222,0,0,0,1.237,2.985L71,208.837a4.222,4.222,0,0,0,5.97,0l3.166-3.166a4.222,4.222,0,0,0,1.237-2.985H77.156Z" transform="translate(-58.158 -172.612)" fill="#f6a96c"/>
  <path id="Path_51" data-name="Path 51" d="M69.587,67.078v9.96a7.916,7.916,0,1,1-15.832,0l-1.336-2.387,1.336-2.537V67.078Z" transform="translate(-45.773 -58.574)" fill="#fed2a4"/>
  <path id="Path_52" data-name="Path 52" d="M144.6,77.039a7.917,7.917,0,0,1-4.794,7.276,4.22,4.22,0,0,1-1.483-3.21V75.482a12.178,12.178,0,0,1,3.38-8.4h2.9Z" transform="translate(-120.786 -58.575)" fill="#ffbd86"/>
  <path id="Path_53" data-name="Path 53" d="M61.9,10.7v3.652l-1.528-.809H59.048l-.88-2.972A2.428,2.428,0,0,0,54.1,9.56l-1.655,1.693a7.6,7.6,0,0,1-5.436,2.287H42.029l-1.528.809V10.7a10.7,10.7,0,0,1,21.394,0Z" transform="translate(-35.366)" fill="#fe9738"/>
  <path id="Path_54" data-name="Path 54" d="M163.1,41.449q-.271.269-.524.554a2.426,2.426,0,0,1,2.19,1.732l.88,2.972h1.319l1.528.809V43.865a10.644,10.644,0,0,0-1.763-5.882A8.374,8.374,0,0,0,163.1,41.449Z" transform="translate(-141.966 -33.168)" fill="#fe860a"/>
  <path id="Path_55" data-name="Path 55" d="M34.379,104.014a2.623,2.623,0,0,1,1.32.356v4.921H34.379a2.639,2.639,0,1,1,0-5.277Z" transform="translate(-27.716 -90.827)" fill="#f6a96c"/>
  <path id="Path_56" data-name="Path 56" d="M131.122,307v19.86a1.521,1.521,0,0,0,1.521,1.521h28.621a1.521,1.521,0,0,0,1.521-1.521V307a5.277,5.277,0,0,0-5.277-5.277H136.4A5.277,5.277,0,0,0,131.122,307Z" transform="translate(-114.499 -263.473)" fill="#cbe5e8"/>
  <path id="Path_57" data-name="Path 57" d="M235.13,375.135l2.288-2.583a1.014,1.014,0,0,0,.246-.81l-2.047-14.973L234.561,356l-1.057.769-2.047,14.973a1.014,1.014,0,0,0,.246.81l2.288,2.583a.761.761,0,0,0,1.139,0Z" transform="translate(-202.106 -310.867)" fill="#fe646f"/>
  <path id="Path_58" data-name="Path 58" d="M236.42,321.754l1.94-2.926-3-2.926-3,2.926,1.94,2.926Z" transform="translate(-202.908 -275.853)" fill="#fd4755"/>
  <path id="Path_59" data-name="Path 59" d="M310.173,301.725h-4.222A5.277,5.277,0,0,1,311.228,307v21.381h2.7a1.521,1.521,0,0,0,1.521-1.521V307A5.277,5.277,0,0,0,310.173,301.725Z" transform="translate(-267.163 -263.473)" fill="#a8d3d8"/>
  <path id="Path_60" data-name="Path 60" d="M226.68,293.412h-6.333l-1.55,1.054,1,4.724a.507.507,0,0,0,.855.254l2.507-2.507a.507.507,0,0,1,.717,0l2.507,2.507a.507.507,0,0,0,.855-.254l1-4.724Z" transform="translate(-191.058 -256.214)" fill="#eef5f6"/>
  <path id="Path_61" data-name="Path 61" d="M237.358,266.15l-2.628,2.628a.761.761,0,0,1-1.076,0l-2.628-2.628v-3.958h6.333Z" transform="translate(-201.736 -228.952)" fill="#f6a96c"/>
  <path id="Path_62" data-name="Path 62" d="M193.041,131.6v9.96a7.916,7.916,0,0,0,15.832,0V131.6Z" transform="translate(-168.568 -114.915)" fill="#fed2a4"/>
  <path id="Path_63" data-name="Path 63" d="M245.807,131.6v9.96a7.919,7.919,0,0,1-5.937,7.667,7.923,7.923,0,0,0,9.895-7.667V131.6Z" transform="translate(-209.46 -114.915)" fill="#ffbd86"/>
  <path id="Path_64" data-name="Path 64" d="M190.17,67.108a4.093,4.093,0,0,0-3.826-2.639h-5.831a8.89,8.89,0,0,0-8.89,8.89v5.466l1.4-.809h1.319c5.812,0,8.617-1.827,9.695-2.795a.254.254,0,0,1,.408.275,2.7,2.7,0,0,1-.126.3.523.523,0,0,0,.536.745,8.716,8.716,0,0,0,3.682-1.357.252.252,0,0,1,.367.105l1.27,2.723h1.319l1.528.809V73.2a7.916,7.916,0,0,0-2.535-5.806Z" transform="translate(-149.865 -56.296)" fill="#d77f4a"/>
  <path id="Path_65" data-name="Path 65" d="M293.04,67.441l-.312-.289a4.091,4.091,0,0,0-3.657-2.632,4.088,4.088,0,0,1,.81,1.313l.312.289a7.916,7.916,0,0,1,2.535,5.806V78.06h1.319l1.528.809V73.247a7.916,7.916,0,0,0-2.535-5.806Z" transform="translate(-252.423 -56.34)" fill="#c86d36"/>
  <path id="Path_66" data-name="Path 66" d="M165.779,168.89a2.638,2.638,0,1,0-1.319,4.921h1.319Zm17.151-.356a2.622,2.622,0,0,0-1.319.356v4.921h1.319a2.639,2.639,0,1,0,0-5.277Z" transform="translate(-141.306 -147.168)" fill="#f6a96c"/>
  <path id="Path_67" data-name="Path 67" d="M462.874,332.73v-15.7a.951.951,0,1,1,1.9,0v15.7Z" transform="translate(-404.192 -276.006)" fill="#0268b4"/>
  <path id="Path_68" data-name="Path 68" d="M34.126,332.73v-15.7a.951.951,0,1,1,1.9,0v15.7Z" transform="translate(-29.8 -276.006)" fill="#4fc123"/>
  <g id="Group_34" data-name="Group 34" transform="translate(20.95 48.251)">
    <path id="Path_69" data-name="Path 69" d="M187.308,380.6a.951.951,0,0,0-.951.951v15.708h1.9V381.55a.951.951,0,0,0-.951-.951Zm-21.109,0a.951.951,0,0,0-.951.951v15.708h1.9V381.55A.951.951,0,0,0,166.2,380.6Z" transform="translate(-165.248 -380.599)" fill="#8ebac5"/>
  </g>
</svg>
