<svg xmlns="http://www.w3.org/2000/svg" width="72.448" height="71.079" viewBox="0 0 72.448 71.079">
  <g id="Group_113" data-name="Group 113" transform="translate(-3.299 -5.654)">
    <path id="Path_73" data-name="Path 73" d="M169.336,94.241H142.2a2.9,2.9,0,0,1-2.9-2.9V81.9a8.714,8.714,0,0,1,8.715-8.715h15.513a8.714,8.714,0,0,1,8.715,8.715v9.434A2.9,2.9,0,0,1,169.336,94.241Z" transform="translate(-96.494 -47.916)" fill="#478cf7"/>
    <path id="Path_74" data-name="Path 74" d="M143.88,97.808a.581.581,0,0,1-.581-.581V90.644a7.51,7.51,0,0,1,.451-2.573.581.581,0,0,1,1.092.4,6.356,6.356,0,0,0-.381,2.176v6.582A.581.581,0,0,1,143.88,97.808Zm1.556-10.969a.581.581,0,0,1-.451-.947q.075-.092.153-.183a.581.581,0,0,1,.878.761c-.044.05-.087.1-.128.153A.579.579,0,0,1,145.436,86.839Z" transform="translate(-99.332 -56.658)" fill="#5e9cf7"/>
    <path id="Path_75" data-name="Path 75" d="M168.063,77.571a8.672,8.672,0,0,1,1.273,4.537v9.434a2.9,2.9,0,0,1-2.9,2.9H139.3a2.9,2.9,0,0,0,2.9,2.9h27.132a2.9,2.9,0,0,0,2.9-2.9V85.012A8.709,8.709,0,0,0,168.063,77.571Z" transform="translate(-96.494 -51.026)" fill="#377de2"/>
    <path id="Path_76" data-name="Path 76" d="M169.55,75.059a8.674,8.674,0,0,1,1.871,5.391v9.434a2.9,2.9,0,0,1-2.9,2.9H141.384a2.889,2.889,0,0,1-1.194-.259,2.9,2.9,0,0,0,2.646,1.711h27.132a2.9,2.9,0,0,0,2.9-2.9V81.9A8.7,8.7,0,0,0,169.55,75.059Zm-8.8,4.1,2.43-5.967h-3.031L156.4,74.6l3.761,4.647A.347.347,0,0,0,160.754,79.156ZM156.4,74.6l-3.751-1.407H149.62l2.43,5.967a.347.347,0,0,0,.591.087Z" transform="translate(-97.126 -47.917)" fill="#2266d3"/>
    <path id="Path_77" data-name="Path 77" d="M190.545,78.034l-2.233,2.759,1.194,2.748h2.079l1.194-2.748Z" transform="translate(-131.269 -51.355)" fill="#ffc91d"/>
    <path id="Path_78" data-name="Path 78" d="M192.122,96.993h-2.079l-.974,14.138H193.1Z" transform="translate(-131.806 -64.806)" fill="#f79219"/>
    <circle id="Ellipse_14" data-name="Ellipse 14" cx="9.889" cy="9.889" r="9.889" transform="translate(49.387 7.014)" fill="#ffd2c0"/>
    <path id="Path_79" data-name="Path 79" d="M183.468,17.941A9.888,9.888,0,0,1,169.56,31.849a9.888,9.888,0,1,0,13.908-13.908Z" transform="translate(-117.964 -8.718)" fill="#fcc4ae"/>
    <path id="Path_80" data-name="Path 80" d="M33.336,194.241H6.2a2.9,2.9,0,0,1-2.9-2.9V181.9a8.714,8.714,0,0,1,8.715-8.715H27.526a8.714,8.714,0,0,1,8.715,8.715v9.434a2.9,2.9,0,0,1-2.9,2.9Z" transform="translate(0 -118.868)" fill="#ffc91d"/>
    <path id="Path_81" data-name="Path 81" d="M33.55,179.628a8.674,8.674,0,0,1,1.871,5.391v9.434a2.9,2.9,0,0,1-2.9,2.9H5.384A2.889,2.889,0,0,1,4.19,197.1a2.9,2.9,0,0,0,2.646,1.711H33.968a2.9,2.9,0,0,0,2.9-2.9v-9.434A8.7,8.7,0,0,0,33.55,179.628Z" transform="translate(-0.632 -123.437)" fill="#ffa91a"/>
    <path id="Path_82" data-name="Path 82" d="M47.787,179.156l2.43-5.967H47.186L43.435,174.6l3.761,4.647A.347.347,0,0,0,47.787,179.156Zm-4.352-4.56-3.751-1.407H36.653l2.43,5.967a.347.347,0,0,0,.591.087Z" transform="translate(-23.665 -118.868)" fill="#f79219"/>
    <path id="Path_83" data-name="Path 83" d="M54.545,178.034l-2.233,2.759,1.194,2.748h2.079l1.194-2.748Z" transform="translate(-34.775 -122.306)" fill="#2266d3"/>
    <path id="Path_84" data-name="Path 84" d="M56.122,196.993H54.043l-.974,14.138H57.1Z" transform="translate(-35.312 -135.758)" fill="#478cf7"/>
    <circle id="Ellipse_15" data-name="Ellipse 15" cx="9.889" cy="9.889" r="9.889" transform="translate(9.881 36.063)" fill="#ffd2c0"/>
    <path id="Path_85" data-name="Path 85" d="M47.468,117.941A9.888,9.888,0,0,1,33.56,131.849a9.888,9.888,0,1,0,13.908-13.908Z" transform="translate(-21.471 -79.669)" fill="#fcc4ae"/>
    <path id="Path_86" data-name="Path 86" d="M53.545,13.187,46.183,5.825a.581.581,0,0,0-.992.411v3.73H29.215A8.714,8.714,0,0,0,20.5,18.681V34.367a.581.581,0,0,0,.581.581h6.1a.581.581,0,0,0,.581-.581V20.134a2.9,2.9,0,0,1,2.9-2.9H45.191v3.73a.581.581,0,0,0,.992.411l7.362-7.361a.581.581,0,0,0,0-.821Z" transform="translate(-12.204 0)" fill="#d10028"/>
    <path id="Path_87" data-name="Path 87" d="M44.61,30.628h-15.4a2.9,2.9,0,0,0-2.9,2.9V47.767a.581.581,0,0,1-.581.581H20.5v.871a.581.581,0,0,0,.581.581h6.1a.581.581,0,0,0,.581-.581V34.985a2.9,2.9,0,0,1,2.9-2.9H45.191v-.871A.581.581,0,0,0,44.61,30.628Zm8.934-2.589-1.452-1.452a.581.581,0,0,1,0,.821l-6.9,6.9v1.5a.581.581,0,0,0,.992.411l7.362-7.361A.581.581,0,0,0,53.545,28.038Z" transform="translate(-12.204 -14.851)" fill="#b7022d"/>
    <path id="Path_88" data-name="Path 88" d="M147.111,152.081v13.653a2.9,2.9,0,0,1-2.9,2.9H129.682v-3.73a.581.581,0,0,0-.992-.411l-7.361,7.361a.581.581,0,0,0,0,.821l7.361,7.361a.581.581,0,0,0,.992-.411V175.9h15.977a8.714,8.714,0,0,0,8.715-8.715V152.081a.581.581,0,0,0-.581-.581h-6.1A.581.581,0,0,0,147.111,152.081Z" transform="translate(-83.623 -103.48)" fill="#648940"/>
    <path id="Path_89" data-name="Path 89" d="M168.641,151.5h-.871v14.234a8.714,8.714,0,0,1-8.715,8.715h-15.4a.581.581,0,0,0-.581.581v3.149a.581.581,0,0,1-.992.411l1.452,1.452a.581.581,0,0,0,.992-.411V175.9h15.977a8.714,8.714,0,0,0,8.715-8.715V152.081A.581.581,0,0,0,168.641,151.5Z" transform="translate(-98.471 -103.48)" fill="#5a7a39"/>
  </g>
</svg>
