<svg xmlns="http://www.w3.org/2000/svg" width="22.644" height="22.531" viewBox="0 0 22.644 22.531">
  <g id="Group_122" data-name="Group 122" transform="translate(0 0)">
    <path id="Path_269" data-name="Path 269" d="M10.751,6.885V5.193l-1-.23a4.034,4.034,0,0,0-.375-.909l.545-.867-1.2-1.2-.867.545a3.815,3.815,0,0,0-.909-.375l-.23-1H5.026l-.226,1a3.967,3.967,0,0,0-.909.375l-.863-.541-1.2,1.2.545.867A4.033,4.033,0,0,0,2,4.964l-1,.23V6.885l1,.226a3.967,3.967,0,0,0,.375.909l-.545.867,1.2,1.2.867-.545a3.815,3.815,0,0,0,.909.375l.226,1H6.721l.23-1a3.967,3.967,0,0,0,.909-.375l.867.545,1.2-1.2L9.382,8.02a3.815,3.815,0,0,0,.375-.909ZM5.876,8.378A2.34,2.34,0,1,1,8.214,6.036,2.34,2.34,0,0,1,5.876,8.378Z" transform="translate(-1 -1.16)" fill="#1c8fc7"/>
    <path id="Path_270" data-name="Path 270" d="M5.522,9.048a.272.272,0,0,1-.272-.272A3.379,3.379,0,0,1,8.625,5.4a.272.272,0,0,1,0,.545A2.828,2.828,0,0,0,5.8,8.772.281.281,0,0,1,5.522,9.048Z" transform="translate(-3.746 -3.9)" fill="#49a5d2"/>
    <path id="Path_271" data-name="Path 271" d="M39.456,21.669V19.241l-1.429-.329a5.806,5.806,0,0,0-.541-1.306l.778-1.242-1.712-1.712-1.242.778A5.647,5.647,0,0,0,34,14.889l-.329-1.429H31.251l-.329,1.429a5.647,5.647,0,0,0-1.306.541l-1.242-.778-1.712,1.712.775,1.242a5.73,5.73,0,0,0-.538,1.306l-1.429.329v2.424l1.429.329a5.865,5.865,0,0,0,.538,1.306l-.775,1.242,1.712,1.712,1.242-.778a5.739,5.739,0,0,0,1.306.541l.329,1.429h2.424L34,26.017a5.875,5.875,0,0,0,1.306-.541l1.242.778,1.712-1.712L37.486,23.3a5.807,5.807,0,0,0,.541-1.306Zm-6.991,2.141a3.354,3.354,0,1,1,3.354-3.354A3.354,3.354,0,0,1,32.465,23.809Z" transform="translate(-16.812 -9.108)" fill="#ffc040"/>
    <path id="Path_272" data-name="Path 272" d="M31.822,24.65a.272.272,0,0,1-.272-.272A4.855,4.855,0,0,1,36.4,19.53a.272.272,0,1,1,0,.545,4.3,4.3,0,0,0-4.3,4.3A.276.276,0,0,1,31.822,24.65Z" transform="translate(-20.741 -13.03)" fill="#ffd683"/>
    <path id="Path_273" data-name="Path 273" d="M10.751,42.995V41.3l-1-.23a4.034,4.034,0,0,0-.375-.909l.545-.867-1.2-1.2-.867.545a3.815,3.815,0,0,0-.909-.375l-.23-1H5.026l-.226,1a3.967,3.967,0,0,0-.909.375L3.024,38.1l-1.2,1.2.545.867a3.94,3.94,0,0,0-.375.909L1,41.3v1.691l1,.226a3.967,3.967,0,0,0,.375.909L1.828,45l1.2,1.2.867-.545a3.815,3.815,0,0,0,.909.375l.226,1H6.721l.23-1a3.967,3.967,0,0,0,.909-.375l.867.545,1.2-1.2-.545-.867a3.815,3.815,0,0,0,.375-.909ZM5.876,44.488a2.34,2.34,0,1,1,2.339-2.342,2.34,2.34,0,0,1-2.339,2.342Z" transform="translate(-1 -24.494)" fill="#ff7146"/>
    <path id="Path_274" data-name="Path 274" d="M5.522,45.158a.272.272,0,0,1-.272-.272A3.379,3.379,0,0,1,8.625,41.51a.272.272,0,1,1,0,.545A2.828,2.828,0,0,0,5.8,44.882.279.279,0,0,1,5.522,45.158Z" transform="translate(-3.746 -27.233)" fill="#ff8d6b"/>
  </g>
</svg>
