<svg xmlns="http://www.w3.org/2000/svg" xmlns:xlink="http://www.w3.org/1999/xlink" width="375" height="812" viewBox="0 0 375 812">
  <defs>
    <clipPath id="clip-path">
      <rect id="Rectangle_1612" data-name="Rectangle 1612" width="375" height="812" fill="#fff"/>
    </clipPath>
  </defs>
  <g id="Mask_Group_13" data-name="Mask Group 13" clip-path="url(#clip-path)">
    <g id="Group_30" data-name="Group 30">
      <g id="Group_26" data-name="Group 26" transform="matrix(0.998, -0.07, 0.07, 0.998, -19.886, 703.229)">
        <path id="Path_5" data-name="Path 5" d="M359.611,251.469a.109.109,0,0,0-.118-.107c-.449-.342-1.134-.567-1.7-1.027a74.923,74.923,0,0,0-48.449-18.379h-.685a63.525,63.525,0,0,0-8.055.45c-2.353.246-4.579.813-6.857,1.262a47.686,47.686,0,0,1,6.857-1.262h-.909c-68.486-3.52-128.767-70.187-139.914-146.269V85.11a20.07,20.07,0,0,0-.235-3.744V80.007a68.96,68.96,0,0,0-18.6-42.33A75.562,75.562,0,0,0,0,75.7a75.384,75.384,0,0,0,36.308,64.571,78.581,78.581,0,0,0,27.8,14.067,76.614,76.614,0,0,0,20.539,2.728q3.579,0,7.157-.342c70.818,20.058,129.9,81.655,144.279,141.443-.053,1.049-.171,2.075-.171,3.124a55.924,55.924,0,0,0,1.936,14.527,52.737,52.737,0,0,0,2.493,8.5,2.163,2.163,0,0,1,.118.8,75.6,75.6,0,1,0,119.15-73.653Z" fill="#e44200"/>
      </g>
      <g id="Group_27" data-name="Group 27" transform="matrix(0.998, -0.07, 0.07, 0.998, -72.785, 512.346)">
        <path id="Path_5-2" data-name="Path 5" d="M359.611,251.469a.109.109,0,0,0-.118-.107c-.449-.342-1.134-.567-1.7-1.027a74.923,74.923,0,0,0-48.449-18.379h-.685a63.525,63.525,0,0,0-8.055.45c-2.353.246-4.579.813-6.857,1.262a47.686,47.686,0,0,1,6.857-1.262h-.909c-68.486-3.52-128.767-70.187-139.914-146.269V85.11a20.07,20.07,0,0,0-.235-3.744V80.007a68.96,68.96,0,0,0-18.6-42.33A75.562,75.562,0,0,0,0,75.7a75.384,75.384,0,0,0,36.308,64.571,78.581,78.581,0,0,0,27.8,14.067,76.614,76.614,0,0,0,20.539,2.728q3.579,0,7.157-.342c70.818,20.058,129.9,81.655,144.279,141.443-.053,1.049-.171,2.075-.171,3.124a55.924,55.924,0,0,0,1.936,14.527,52.737,52.737,0,0,0,2.493,8.5,2.163,2.163,0,0,1,.118.8,75.6,75.6,0,1,0,119.15-73.653Z" fill="#2d6cb4"/>
      </g>
      <ellipse id="Ellipse_2" data-name="Ellipse 2" cx="63.965" cy="63.965" rx="63.965" ry="63.965" transform="matrix(0.998, -0.07, 0.07, 0.998, 143.54, 555.049)" fill="#e44200"/>
    </g>
    <circle id="Ellipse_3" data-name="Ellipse 3" cx="126" cy="126" r="126" transform="translate(211.811 -103.335)" fill="#2d6cb4" opacity="0.08"/>
  </g>
</svg>
