<svg xmlns="http://www.w3.org/2000/svg" width="15.185" height="19.935" viewBox="0 0 15.185 19.935">
  <g id="Group_162" data-name="Group 162" transform="translate(-61)">
    <path id="Path_8008" data-name="Path 8008" d="M75.673,30.514A1.738,1.738,0,0,0,74.434,30h-.777v.779A1.558,1.558,0,0,1,72.1,32.336h-7a1.558,1.558,0,0,1-1.556-1.557V30h-.779a1.753,1.753,0,0,0-1.75,1.75L61,47.013a1.751,1.751,0,0,0,1.75,1.754H74.418a1.753,1.753,0,0,0,1.75-1.75l.017-15.262A1.741,1.741,0,0,0,75.673,30.514ZM68.791,35.84h4.145a.584.584,0,0,1,0,1.168H68.791a.584.584,0,0,1,0-1.168Zm0,3.893h4.145a.584.584,0,0,1,0,1.168H68.791a.584.584,0,0,1,0-1.168Zm0,3.893h4.161a.584.584,0,0,1,0,1.168H68.791a.584.584,0,0,1,0-1.168ZM63.82,35.863a.583.583,0,0,1,.825,0l.317.318,1.345-1.347a.584.584,0,0,1,.825.826l-1.758,1.76a.583.583,0,0,1-.825,0l-.73-.731A.584.584,0,0,1,63.82,35.863Zm0,4.191a.583.583,0,0,1,.825,0l.317.318,1.345-1.347a.584.584,0,0,1,.825.826l-1.758,1.76a.583.583,0,0,1-.825,0l-.73-.731A.584.584,0,0,1,63.82,40.054Zm0,3.893a.583.583,0,0,1,.825,0l.317.318,1.345-1.347a.584.584,0,0,1,.825.826L65.375,45.5a.583.583,0,0,1-.825,0l-.73-.731A.584.584,0,0,1,63.82,43.948Z" transform="translate(0 -28.832)" fill="#fff"/>
    <path id="Path_8009" data-name="Path 8009" d="M156.361,1.947a.389.389,0,0,0,.389.389h7a.389.389,0,0,0,.389-.389V.389A.389.389,0,0,0,163.75,0h-7a.389.389,0,0,0-.389.389Z" transform="translate(-91.648)" fill="#fff"/>
  </g>
</svg>
