<svg xmlns="http://www.w3.org/2000/svg" width="28" height="32" viewBox="0 0 28 32">
  <g id="Group_134" data-name="Group 134" transform="translate(-2)">
    <path id="Path_8005" data-name="Path 8005" d="M19.1,0a5.825,5.825,0,0,1,4.7,2.3l4.9,6.1A6.4,6.4,0,0,1,30,12.1V26a6.018,6.018,0,0,1-6,6H8a6.018,6.018,0,0,1-6-6V6A6.018,6.018,0,0,1,8,0Zm3.1,11.3a4.917,4.917,0,0,0-6.6-.4,1.075,1.075,0,0,0-.2,1.4,1.075,1.075,0,0,0,1.4.2A2.986,2.986,0,0,1,20.7,17l-3.5,3.5-1.7,1.7-.1.1a2.973,2.973,0,0,1-4.2-4.2l.1-.1,2.3-2.3.1-.1a.935.935,0,0,1,1.3.1.967.967,0,0,1,0,1.4l-2.3,2.3-.1.1a.935.935,0,0,0,.1,1.3.967.967,0,0,0,1.4,0l2.3-2.3.1-.1a3.061,3.061,0,0,0-.1-4.1,2.9,2.9,0,0,0-4.2,0l-.9.9-.1.1-.6.6-.7.7A5.02,5.02,0,0,0,17,23.7l2.3-2.3.1-.1,2.9-2.9.2-.2a5.2,5.2,0,0,0-.3-6.9Z" fill="#7b7b7b" fill-rule="evenodd"/>
  </g>
</svg>
