<svg xmlns="http://www.w3.org/2000/svg" width="41.647" height="41.647" viewBox="0 0 41.647 41.647">
  <g id="surface1" transform="translate(109.633 -181.367)">
    <path id="Path_7659" data-name="Path 7659" d="M68.191,47.367A20.824,20.824,0,1,0,89.015,68.191,20.821,20.821,0,0,0,68.191,47.367ZM56.044,80.582c2.027-6.074,8.1-3.7,9.11-7V71.4a5.821,5.821,0,0,1-1.9-3.24c-.359-.027-.915-.386-1.084-1.79a1.324,1.324,0,0,1,.481-1.315,6.976,6.976,0,0,1-.536-2.427c0-3.6,1.783-6.582,6.074-6.582a3.2,3.2,0,0,1,3.036,1.64c2.074,0,3.037,2.278,3.037,4.935a6.217,6.217,0,0,1-.535,2.433,1.312,1.312,0,0,1,.481,1.308c-.17,1.41-.725,1.769-1.085,1.8a5.847,5.847,0,0,1-1.9,3.24v2.189c1.01,3.294,7.084.922,9.11,7a17.349,17.349,0,0,1-24.294,0Z" transform="translate(-157 134)" fill="#2d6cb4"/>
  </g>
</svg>
